%TF.GenerationSoftware,KiCad,Pcbnew,(5.1.12)-1*%
%TF.CreationDate,2023-08-22T11:28:01+05:30*%
%TF.ProjectId,auto street,6175746f-2073-4747-9265-65742e6b6963,rev?*%
%TF.SameCoordinates,Original*%
%TF.FileFunction,Legend,Top*%
%TF.FilePolarity,Positive*%
%FSLAX46Y46*%
G04 Gerber Fmt 4.6, Leading zero omitted, Abs format (unit mm)*
G04 Created by KiCad (PCBNEW (5.1.12)-1) date 2023-08-22 11:28:01*
%MOMM*%
%LPD*%
G01*
G04 APERTURE LIST*
%ADD10C,0.120000*%
%ADD11C,0.127000*%
%ADD12C,0.150000*%
G04 APERTURE END LIST*
D10*
%TO.C,RV1*%
X215221000Y-131620000D02*
X209580000Y-131620000D01*
X215221000Y-121880000D02*
X209580000Y-121880000D01*
X215221000Y-131620000D02*
X215221000Y-121880000D01*
X209580000Y-131620000D02*
X209580000Y-121880000D01*
X209580000Y-130370000D02*
X204580000Y-130370000D01*
X209580000Y-123130000D02*
X204580000Y-123130000D01*
X209580000Y-130370000D02*
X209580000Y-123130000D01*
X204580000Y-130370000D02*
X204580000Y-123130000D01*
X204580000Y-129370000D02*
X197580000Y-129370000D01*
X204580000Y-124130000D02*
X197580000Y-124130000D01*
X204580000Y-129370000D02*
X204580000Y-124130000D01*
X197580000Y-129370000D02*
X197580000Y-124130000D01*
%TO.C,R2*%
X219420000Y-111820000D02*
X219420000Y-115660000D01*
X217580000Y-111820000D02*
X217580000Y-115660000D01*
%TO.C,R1*%
X212832650Y-119227560D02*
G75*
G03*
X212800000Y-110450000I-3032650J4377560D01*
G01*
X206767350Y-110472440D02*
G75*
G03*
X206800000Y-119250000I3032650J-4377560D01*
G01*
X206800000Y-119250000D02*
X212800000Y-119250000D01*
X206800000Y-110450000D02*
X212800000Y-110450000D01*
%TO.C,Q2*%
X220988478Y-127141522D02*
G75*
G03*
X216550000Y-128980000I-1838478J-1838478D01*
G01*
X220988478Y-130818478D02*
G75*
G02*
X216550000Y-128980000I-1838478J1838478D01*
G01*
X221000000Y-130780000D02*
X221000000Y-127180000D01*
%TO.C,Q1*%
X216861522Y-123308478D02*
G75*
G03*
X221300000Y-121470000I1838478J1838478D01*
G01*
X216861522Y-119631522D02*
G75*
G02*
X221300000Y-121470000I1838478J-1838478D01*
G01*
X216850000Y-119670000D02*
X216850000Y-123270000D01*
D11*
%TO.C,K1*%
X227550000Y-128700000D02*
X227550000Y-113300000D01*
X227550000Y-113300000D02*
X237950000Y-113300000D01*
X237950000Y-113300000D02*
X237950000Y-128700000D01*
X237950000Y-128700000D02*
X227550000Y-128700000D01*
D10*
%TO.C,J1*%
X223170000Y-128570000D02*
X225830000Y-128570000D01*
X223170000Y-128570000D02*
X223170000Y-131170000D01*
X223170000Y-131170000D02*
X225830000Y-131170000D01*
X225830000Y-128570000D02*
X225830000Y-131170000D01*
X225830000Y-125970000D02*
X225830000Y-127300000D01*
X224500000Y-125970000D02*
X225830000Y-125970000D01*
%TO.C,D1*%
X225570000Y-114260000D02*
X222630000Y-114260000D01*
X222630000Y-114260000D02*
X222630000Y-119700000D01*
X222630000Y-119700000D02*
X225570000Y-119700000D01*
X225570000Y-119700000D02*
X225570000Y-114260000D01*
X224100000Y-113240000D02*
X224100000Y-114260000D01*
X224100000Y-120720000D02*
X224100000Y-119700000D01*
X225570000Y-115160000D02*
X222630000Y-115160000D01*
X225570000Y-115280000D02*
X222630000Y-115280000D01*
X225570000Y-115040000D02*
X222630000Y-115040000D01*
%TO.C,BT1*%
X200670000Y-113420000D02*
X203330000Y-113420000D01*
X200670000Y-113420000D02*
X200670000Y-116020000D01*
X200670000Y-116020000D02*
X203330000Y-116020000D01*
X203330000Y-113420000D02*
X203330000Y-116020000D01*
X203330000Y-110820000D02*
X203330000Y-112150000D01*
X202000000Y-110820000D02*
X203330000Y-110820000D01*
%TO.C,RV1*%
D12*
X212751428Y-133155714D02*
X212511428Y-132812857D01*
X212340000Y-133155714D02*
X212340000Y-132435714D01*
X212614285Y-132435714D01*
X212682857Y-132470000D01*
X212717142Y-132504285D01*
X212751428Y-132572857D01*
X212751428Y-132675714D01*
X212717142Y-132744285D01*
X212682857Y-132778571D01*
X212614285Y-132812857D01*
X212340000Y-132812857D01*
X212957142Y-132435714D02*
X213197142Y-133155714D01*
X213437142Y-132435714D01*
X214054285Y-133155714D02*
X213642857Y-133155714D01*
X213848571Y-133155714D02*
X213848571Y-132435714D01*
X213780000Y-132538571D01*
X213711428Y-132607142D01*
X213642857Y-132641428D01*
%TO.C,R2*%
X219025714Y-113770000D02*
X218682857Y-114010000D01*
X219025714Y-114181428D02*
X218305714Y-114181428D01*
X218305714Y-113907142D01*
X218340000Y-113838571D01*
X218374285Y-113804285D01*
X218442857Y-113770000D01*
X218545714Y-113770000D01*
X218614285Y-113804285D01*
X218648571Y-113838571D01*
X218682857Y-113907142D01*
X218682857Y-114181428D01*
X218374285Y-113495714D02*
X218340000Y-113461428D01*
X218305714Y-113392857D01*
X218305714Y-113221428D01*
X218340000Y-113152857D01*
X218374285Y-113118571D01*
X218442857Y-113084285D01*
X218511428Y-113084285D01*
X218614285Y-113118571D01*
X219025714Y-113530000D01*
X219025714Y-113084285D01*
%TO.C,R1*%
X209740000Y-112675714D02*
X209500000Y-112332857D01*
X209328571Y-112675714D02*
X209328571Y-111955714D01*
X209602857Y-111955714D01*
X209671428Y-111990000D01*
X209705714Y-112024285D01*
X209740000Y-112092857D01*
X209740000Y-112195714D01*
X209705714Y-112264285D01*
X209671428Y-112298571D01*
X209602857Y-112332857D01*
X209328571Y-112332857D01*
X210425714Y-112675714D02*
X210014285Y-112675714D01*
X210220000Y-112675714D02*
X210220000Y-111955714D01*
X210151428Y-112058571D01*
X210082857Y-112127142D01*
X210014285Y-112161428D01*
%TO.C,Q2*%
X217869285Y-128843571D02*
X217835000Y-128912142D01*
X217766428Y-128980714D01*
X217663571Y-129083571D01*
X217629285Y-129152142D01*
X217629285Y-129220714D01*
X217800714Y-129186428D02*
X217766428Y-129255000D01*
X217697857Y-129323571D01*
X217560714Y-129357857D01*
X217320714Y-129357857D01*
X217183571Y-129323571D01*
X217115000Y-129255000D01*
X217080714Y-129186428D01*
X217080714Y-129049285D01*
X217115000Y-128980714D01*
X217183571Y-128912142D01*
X217320714Y-128877857D01*
X217560714Y-128877857D01*
X217697857Y-128912142D01*
X217766428Y-128980714D01*
X217800714Y-129049285D01*
X217800714Y-129186428D01*
X217149285Y-128603571D02*
X217115000Y-128569285D01*
X217080714Y-128500714D01*
X217080714Y-128329285D01*
X217115000Y-128260714D01*
X217149285Y-128226428D01*
X217217857Y-128192142D01*
X217286428Y-128192142D01*
X217389285Y-128226428D01*
X217800714Y-128637857D01*
X217800714Y-128192142D01*
%TO.C,Q1*%
X220714285Y-121888571D02*
X220680000Y-121957142D01*
X220611428Y-122025714D01*
X220508571Y-122128571D01*
X220474285Y-122197142D01*
X220474285Y-122265714D01*
X220645714Y-122231428D02*
X220611428Y-122300000D01*
X220542857Y-122368571D01*
X220405714Y-122402857D01*
X220165714Y-122402857D01*
X220028571Y-122368571D01*
X219960000Y-122300000D01*
X219925714Y-122231428D01*
X219925714Y-122094285D01*
X219960000Y-122025714D01*
X220028571Y-121957142D01*
X220165714Y-121922857D01*
X220405714Y-121922857D01*
X220542857Y-121957142D01*
X220611428Y-122025714D01*
X220645714Y-122094285D01*
X220645714Y-122231428D01*
X220645714Y-121237142D02*
X220645714Y-121648571D01*
X220645714Y-121442857D02*
X219925714Y-121442857D01*
X220028571Y-121511428D01*
X220097142Y-121580000D01*
X220131428Y-121648571D01*
%TO.C,K1*%
X237075714Y-121531428D02*
X236355714Y-121531428D01*
X237075714Y-121120000D02*
X236664285Y-121428571D01*
X236355714Y-121120000D02*
X236767142Y-121531428D01*
X237075714Y-120434285D02*
X237075714Y-120845714D01*
X237075714Y-120640000D02*
X236355714Y-120640000D01*
X236458571Y-120708571D01*
X236527142Y-120777142D01*
X236561428Y-120845714D01*
%TO.C,J1*%
X224260000Y-124135714D02*
X224260000Y-124650000D01*
X224225714Y-124752857D01*
X224157142Y-124821428D01*
X224054285Y-124855714D01*
X223985714Y-124855714D01*
X224980000Y-124855714D02*
X224568571Y-124855714D01*
X224774285Y-124855714D02*
X224774285Y-124135714D01*
X224705714Y-124238571D01*
X224637142Y-124307142D01*
X224568571Y-124341428D01*
%TO.C,D1*%
X224295714Y-118031428D02*
X223575714Y-118031428D01*
X223575714Y-117860000D01*
X223610000Y-117757142D01*
X223678571Y-117688571D01*
X223747142Y-117654285D01*
X223884285Y-117620000D01*
X223987142Y-117620000D01*
X224124285Y-117654285D01*
X224192857Y-117688571D01*
X224261428Y-117757142D01*
X224295714Y-117860000D01*
X224295714Y-118031428D01*
X224295714Y-116934285D02*
X224295714Y-117345714D01*
X224295714Y-117140000D02*
X223575714Y-117140000D01*
X223678571Y-117208571D01*
X223747142Y-117277142D01*
X223781428Y-117345714D01*
X226742380Y-112141904D02*
X225742380Y-112141904D01*
X226742380Y-111570476D02*
X226170952Y-111999047D01*
X225742380Y-111570476D02*
X226313809Y-112141904D01*
%TO.C,BT1*%
X198948571Y-115565714D02*
X198982857Y-115462857D01*
X199017142Y-115428571D01*
X199085714Y-115394285D01*
X199188571Y-115394285D01*
X199257142Y-115428571D01*
X199291428Y-115462857D01*
X199325714Y-115531428D01*
X199325714Y-115805714D01*
X198605714Y-115805714D01*
X198605714Y-115565714D01*
X198640000Y-115497142D01*
X198674285Y-115462857D01*
X198742857Y-115428571D01*
X198811428Y-115428571D01*
X198880000Y-115462857D01*
X198914285Y-115497142D01*
X198948571Y-115565714D01*
X198948571Y-115805714D01*
X198605714Y-115188571D02*
X198605714Y-114777142D01*
X199325714Y-114982857D02*
X198605714Y-114982857D01*
X199325714Y-114160000D02*
X199325714Y-114571428D01*
X199325714Y-114365714D02*
X198605714Y-114365714D01*
X198708571Y-114434285D01*
X198777142Y-114502857D01*
X198811428Y-114571428D01*
%TD*%
M02*
