%TF.GenerationSoftware,KiCad,Pcbnew,(5.1.12)-1*%
%TF.CreationDate,2023-08-22T11:28:01+05:30*%
%TF.ProjectId,auto street,6175746f-2073-4747-9265-65742e6b6963,rev?*%
%TF.SameCoordinates,Original*%
%TF.FileFunction,Copper,L2,Bot*%
%TF.FilePolarity,Positive*%
%FSLAX46Y46*%
G04 Gerber Fmt 4.6, Leading zero omitted, Abs format (unit mm)*
G04 Created by KiCad (PCBNEW (5.1.12)-1) date 2023-08-22 11:28:01*
%MOMM*%
%LPD*%
G01*
G04 APERTURE LIST*
%TA.AperFunction,ComponentPad*%
%ADD10C,1.800000*%
%TD*%
%TA.AperFunction,ComponentPad*%
%ADD11O,1.400000X1.400000*%
%TD*%
%TA.AperFunction,ComponentPad*%
%ADD12C,1.400000*%
%TD*%
%TA.AperFunction,ComponentPad*%
%ADD13C,1.600000*%
%TD*%
%TA.AperFunction,ComponentPad*%
%ADD14R,1.500000X1.050000*%
%TD*%
%TA.AperFunction,ComponentPad*%
%ADD15O,1.500000X1.050000*%
%TD*%
%TA.AperFunction,ComponentPad*%
%ADD16C,1.508000*%
%TD*%
%TA.AperFunction,ComponentPad*%
%ADD17O,1.700000X1.700000*%
%TD*%
%TA.AperFunction,ComponentPad*%
%ADD18R,1.700000X1.700000*%
%TD*%
%TA.AperFunction,ComponentPad*%
%ADD19O,2.200000X2.200000*%
%TD*%
%TA.AperFunction,ComponentPad*%
%ADD20R,2.200000X2.200000*%
%TD*%
%TA.AperFunction,ViaPad*%
%ADD21C,3.500000*%
%TD*%
%TA.AperFunction,Conductor*%
%ADD22C,0.250000*%
%TD*%
%TA.AperFunction,Conductor*%
%ADD23C,0.254000*%
%TD*%
%TA.AperFunction,Conductor*%
%ADD24C,0.100000*%
%TD*%
G04 APERTURE END LIST*
D10*
%TO.P,RV1,1*%
%TO.N,Net-(Q1-Pad2)*%
X213150000Y-124250000D03*
%TO.P,RV1,2*%
%TO.N,GND*%
X213150000Y-126750000D03*
%TO.P,RV1,3*%
X213150000Y-129250000D03*
%TD*%
D11*
%TO.P,R2,2*%
%TO.N,Net-(Q1-Pad1)*%
X218500000Y-116280000D03*
D12*
%TO.P,R2,1*%
%TO.N,VCC*%
X218500000Y-111200000D03*
%TD*%
D13*
%TO.P,R1,2*%
%TO.N,Net-(Q1-Pad2)*%
X213600000Y-114850000D03*
%TO.P,R1,1*%
%TO.N,VCC*%
X206000000Y-114850000D03*
%TD*%
D14*
%TO.P,Q2,1*%
%TO.N,Net-(D1-Pad2)*%
X219150000Y-130250000D03*
D15*
%TO.P,Q2,3*%
%TO.N,GND*%
X219150000Y-127710000D03*
%TO.P,Q2,2*%
%TO.N,Net-(Q1-Pad1)*%
X219150000Y-128980000D03*
%TD*%
D14*
%TO.P,Q1,1*%
%TO.N,Net-(Q1-Pad1)*%
X218700000Y-120200000D03*
D15*
%TO.P,Q1,3*%
%TO.N,GND*%
X218700000Y-122740000D03*
%TO.P,Q1,2*%
%TO.N,Net-(Q1-Pad2)*%
X218700000Y-121470000D03*
%TD*%
D16*
%TO.P,K1,12*%
%TO.N,Net-(K1-Pad12)*%
X228950000Y-127300000D03*
%TO.P,K1,14*%
%TO.N,Net-(J1-Pad2)*%
X228950000Y-124800000D03*
%TO.P,K1,A1*%
%TO.N,Net-(D1-Pad2)*%
X236550000Y-127300000D03*
%TO.P,K1,A2*%
%TO.N,VCC*%
X236550000Y-124800000D03*
%TO.P,K1,11*%
%TO.N,Net-(J1-Pad1)*%
X236550000Y-114700000D03*
%TD*%
D17*
%TO.P,J1,2*%
%TO.N,Net-(J1-Pad2)*%
X224500000Y-129840000D03*
D18*
%TO.P,J1,1*%
%TO.N,Net-(J1-Pad1)*%
X224500000Y-127300000D03*
%TD*%
D19*
%TO.P,D1,2*%
%TO.N,Net-(D1-Pad2)*%
X224100000Y-122060000D03*
D20*
%TO.P,D1,1*%
%TO.N,VCC*%
X224100000Y-111900000D03*
%TD*%
D17*
%TO.P,BT1,2*%
%TO.N,GND*%
X202000000Y-114690000D03*
D18*
%TO.P,BT1,1*%
%TO.N,VCC*%
X202000000Y-112150000D03*
%TD*%
D21*
%TO.N,*%
X240000000Y-108000000D03*
X240000000Y-134000000D03*
X195000000Y-134000000D03*
X195000000Y-108000000D03*
%TD*%
D22*
%TO.N,VCC*%
X218500000Y-111200000D02*
X218500000Y-109750000D01*
X218500000Y-109750000D02*
X219525000Y-108725000D01*
X219525000Y-108725000D02*
X222750000Y-108725000D01*
X224100000Y-110075000D02*
X224100000Y-111900000D01*
X222750000Y-108725000D02*
X224100000Y-110075000D01*
X218500000Y-111200000D02*
X218500000Y-110100000D01*
X218500000Y-110100000D02*
X217350000Y-108950000D01*
X207275000Y-108950000D02*
X206000000Y-110225000D01*
X217350000Y-108950000D02*
X207275000Y-108950000D01*
X206000000Y-110225000D02*
X206000000Y-114850000D01*
X239350000Y-122000000D02*
X236550000Y-124800000D01*
X239350000Y-113650000D02*
X239350000Y-122000000D01*
X225400000Y-108625000D02*
X234325000Y-108625000D01*
X234325000Y-108625000D02*
X239350000Y-113650000D01*
X224100000Y-109925000D02*
X225400000Y-108625000D01*
X224100000Y-111900000D02*
X224100000Y-109925000D01*
X206000000Y-109975000D02*
X206000000Y-110225000D01*
X205100000Y-109075000D02*
X206000000Y-109975000D01*
X202000000Y-109700000D02*
X202625000Y-109075000D01*
X202000000Y-111650000D02*
X202000000Y-109700000D01*
X202625000Y-109075000D02*
X205100000Y-109075000D01*
X201500000Y-112150000D02*
X202000000Y-111650000D01*
%TO.N,Net-(D1-Pad2)*%
X220500000Y-130250000D02*
X219150000Y-130250000D01*
X221925000Y-128825000D02*
X220500000Y-130250000D01*
X224100000Y-122060000D02*
X222250011Y-123909989D01*
X222250011Y-123909989D02*
X222250011Y-128499989D01*
X222250011Y-128499989D02*
X221925000Y-128825000D01*
X231425000Y-132425000D02*
X236550000Y-127300000D01*
X223355000Y-132425000D02*
X231425000Y-132425000D01*
X220840000Y-129910000D02*
X223355000Y-132425000D01*
X221925000Y-128825000D02*
X220840000Y-129910000D01*
%TO.N,Net-(J1-Pad2)*%
X228950000Y-125390000D02*
X228950000Y-124800000D01*
X224500000Y-129840000D02*
X228950000Y-125390000D01*
%TO.N,Net-(J1-Pad1)*%
X226500000Y-125300000D02*
X224500000Y-127300000D01*
X228030000Y-111760000D02*
X226500000Y-113290000D01*
X235435000Y-111760000D02*
X228030000Y-111760000D01*
X236550000Y-112875000D02*
X235435000Y-111760000D01*
X226500000Y-113290000D02*
X226500000Y-125300000D01*
X236550000Y-114700000D02*
X236550000Y-112875000D01*
%TO.N,Net-(Q1-Pad1)*%
X219600000Y-120200000D02*
X218700000Y-120200000D01*
X219925000Y-120200000D02*
X219600000Y-120200000D01*
X220700000Y-120200000D02*
X219600000Y-120200000D01*
X220949980Y-120200000D02*
X220700000Y-120200000D01*
X221800000Y-121050020D02*
X220949980Y-120200000D01*
X221800000Y-127800000D02*
X221800000Y-121050020D01*
X220620000Y-128980000D02*
X221800000Y-127800000D01*
X219150000Y-128980000D02*
X220620000Y-128980000D01*
X221600000Y-119300000D02*
X220700000Y-120200000D01*
X221600000Y-117100000D02*
X221600000Y-119300000D01*
X220780000Y-116280000D02*
X221600000Y-117100000D01*
X218500000Y-116280000D02*
X220780000Y-116280000D01*
%TO.N,GND*%
X211475000Y-126750000D02*
X213150000Y-126750000D01*
X208975000Y-121025000D02*
X210800000Y-122850000D01*
X205150000Y-121025000D02*
X208975000Y-121025000D01*
X202000000Y-117875000D02*
X205150000Y-121025000D01*
X210800000Y-126075000D02*
X211475000Y-126750000D01*
X202000000Y-115190000D02*
X202000000Y-117875000D01*
X210800000Y-122850000D02*
X210800000Y-126075000D01*
X201500000Y-114690000D02*
X202000000Y-115190000D01*
%TO.N,Net-(Q1-Pad2)*%
X215930000Y-121470000D02*
X218700000Y-121470000D01*
X213600000Y-114850000D02*
X213600000Y-119500000D01*
X215750000Y-121650000D02*
X215930000Y-121470000D01*
X213150000Y-124250000D02*
X215750000Y-121650000D01*
X215570000Y-121470000D02*
X213600000Y-119500000D01*
X218700000Y-121470000D02*
X215570000Y-121470000D01*
%TD*%
D23*
%TO.N,GND*%
X239304321Y-105706654D02*
X238870279Y-105886440D01*
X238479651Y-106147450D01*
X238147450Y-106479651D01*
X237886440Y-106870279D01*
X237706654Y-107304321D01*
X237615000Y-107765098D01*
X237615000Y-108234902D01*
X237706654Y-108695679D01*
X237886440Y-109129721D01*
X238147450Y-109520349D01*
X238479651Y-109852550D01*
X238870279Y-110113560D01*
X239304321Y-110293346D01*
X239765098Y-110385000D01*
X240234902Y-110385000D01*
X240695679Y-110293346D01*
X241129721Y-110113560D01*
X241520349Y-109852550D01*
X241852550Y-109520349D01*
X242113560Y-109129721D01*
X242293346Y-108695679D01*
X242340001Y-108461128D01*
X242340000Y-133538867D01*
X242293346Y-133304321D01*
X242113560Y-132870279D01*
X241852550Y-132479651D01*
X241520349Y-132147450D01*
X241129721Y-131886440D01*
X240695679Y-131706654D01*
X240234902Y-131615000D01*
X239765098Y-131615000D01*
X239304321Y-131706654D01*
X238870279Y-131886440D01*
X238479651Y-132147450D01*
X238147450Y-132479651D01*
X237886440Y-132870279D01*
X237706654Y-133304321D01*
X237615000Y-133765098D01*
X237615000Y-134234902D01*
X237706654Y-134695679D01*
X237886440Y-135129721D01*
X238147450Y-135520349D01*
X238479651Y-135852550D01*
X238870279Y-136113560D01*
X239304321Y-136293346D01*
X239538867Y-136340000D01*
X195461133Y-136340000D01*
X195695679Y-136293346D01*
X196129721Y-136113560D01*
X196520349Y-135852550D01*
X196852550Y-135520349D01*
X197113560Y-135129721D01*
X197293346Y-134695679D01*
X197385000Y-134234902D01*
X197385000Y-133765098D01*
X197293346Y-133304321D01*
X197113560Y-132870279D01*
X196852550Y-132479651D01*
X196520349Y-132147450D01*
X196129721Y-131886440D01*
X195695679Y-131706654D01*
X195234902Y-131615000D01*
X194765098Y-131615000D01*
X194304321Y-131706654D01*
X193870279Y-131886440D01*
X193479651Y-132147450D01*
X193147450Y-132479651D01*
X192886440Y-132870279D01*
X192706654Y-133304321D01*
X192660000Y-133538867D01*
X192660000Y-130314080D01*
X212265525Y-130314080D01*
X212349208Y-130568261D01*
X212621775Y-130699158D01*
X212914642Y-130774365D01*
X213216553Y-130790991D01*
X213515907Y-130748397D01*
X213801199Y-130648222D01*
X213950792Y-130568261D01*
X214034475Y-130314080D01*
X213150000Y-129429605D01*
X212265525Y-130314080D01*
X192660000Y-130314080D01*
X192660000Y-129316553D01*
X211609009Y-129316553D01*
X211651603Y-129615907D01*
X211751778Y-129901199D01*
X211831739Y-130050792D01*
X212085920Y-130134475D01*
X212970395Y-129250000D01*
X213329605Y-129250000D01*
X214214080Y-130134475D01*
X214468261Y-130050792D01*
X214599158Y-129778225D01*
X214674365Y-129485358D01*
X214690991Y-129183447D01*
X214648397Y-128884093D01*
X214548222Y-128598801D01*
X214468261Y-128449208D01*
X214214080Y-128365525D01*
X213329605Y-129250000D01*
X212970395Y-129250000D01*
X212085920Y-128365525D01*
X211831739Y-128449208D01*
X211700842Y-128721775D01*
X211625635Y-129014642D01*
X211609009Y-129316553D01*
X192660000Y-129316553D01*
X192660000Y-127814080D01*
X212265525Y-127814080D01*
X212326735Y-128000000D01*
X212265525Y-128185920D01*
X213150000Y-129070395D01*
X214034475Y-128185920D01*
X213973265Y-128000000D01*
X214034475Y-127814080D01*
X213150000Y-126929605D01*
X212265525Y-127814080D01*
X192660000Y-127814080D01*
X192660000Y-126816553D01*
X211609009Y-126816553D01*
X211651603Y-127115907D01*
X211751778Y-127401199D01*
X211831739Y-127550792D01*
X212085920Y-127634475D01*
X212970395Y-126750000D01*
X213329605Y-126750000D01*
X214214080Y-127634475D01*
X214468261Y-127550792D01*
X214538664Y-127404190D01*
X217806036Y-127404190D01*
X217931837Y-127583000D01*
X219023000Y-127583000D01*
X219023000Y-126703402D01*
X219277000Y-126703402D01*
X219277000Y-127583000D01*
X220368163Y-127583000D01*
X220493964Y-127404190D01*
X220485272Y-127342663D01*
X220392275Y-127133118D01*
X220260184Y-126945742D01*
X220094076Y-126787736D01*
X219900334Y-126665172D01*
X219686404Y-126582761D01*
X219460507Y-126543669D01*
X219277000Y-126703402D01*
X219023000Y-126703402D01*
X218839493Y-126543669D01*
X218613596Y-126582761D01*
X218399666Y-126665172D01*
X218205924Y-126787736D01*
X218039816Y-126945742D01*
X217907725Y-127133118D01*
X217814728Y-127342663D01*
X217806036Y-127404190D01*
X214538664Y-127404190D01*
X214599158Y-127278225D01*
X214674365Y-126985358D01*
X214690991Y-126683447D01*
X214648397Y-126384093D01*
X214548222Y-126098801D01*
X214468261Y-125949208D01*
X214214080Y-125865525D01*
X213329605Y-126750000D01*
X212970395Y-126750000D01*
X212085920Y-125865525D01*
X211831739Y-125949208D01*
X211700842Y-126221775D01*
X211625635Y-126514642D01*
X211609009Y-126816553D01*
X192660000Y-126816553D01*
X192660000Y-115046890D01*
X200558524Y-115046890D01*
X200603175Y-115194099D01*
X200728359Y-115456920D01*
X200902412Y-115690269D01*
X201118645Y-115885178D01*
X201368748Y-116034157D01*
X201643109Y-116131481D01*
X201873000Y-116010814D01*
X201873000Y-114817000D01*
X202127000Y-114817000D01*
X202127000Y-116010814D01*
X202356891Y-116131481D01*
X202631252Y-116034157D01*
X202881355Y-115885178D01*
X203097588Y-115690269D01*
X203271641Y-115456920D01*
X203396825Y-115194099D01*
X203441476Y-115046890D01*
X203320155Y-114817000D01*
X202127000Y-114817000D01*
X201873000Y-114817000D01*
X200679845Y-114817000D01*
X200558524Y-115046890D01*
X192660000Y-115046890D01*
X192660000Y-111300000D01*
X200511928Y-111300000D01*
X200511928Y-113000000D01*
X200524188Y-113124482D01*
X200560498Y-113244180D01*
X200619463Y-113354494D01*
X200698815Y-113451185D01*
X200795506Y-113530537D01*
X200905820Y-113589502D01*
X200986466Y-113613966D01*
X200902412Y-113689731D01*
X200728359Y-113923080D01*
X200603175Y-114185901D01*
X200558524Y-114333110D01*
X200679845Y-114563000D01*
X201873000Y-114563000D01*
X201873000Y-114543000D01*
X202127000Y-114543000D01*
X202127000Y-114563000D01*
X203320155Y-114563000D01*
X203441476Y-114333110D01*
X203396825Y-114185901D01*
X203271641Y-113923080D01*
X203097588Y-113689731D01*
X203013534Y-113613966D01*
X203094180Y-113589502D01*
X203204494Y-113530537D01*
X203301185Y-113451185D01*
X203380537Y-113354494D01*
X203439502Y-113244180D01*
X203475812Y-113124482D01*
X203488072Y-113000000D01*
X203488072Y-111300000D01*
X203475812Y-111175518D01*
X203439502Y-111055820D01*
X203380537Y-110945506D01*
X203301185Y-110848815D01*
X203204494Y-110769463D01*
X203094180Y-110710498D01*
X202974482Y-110674188D01*
X202850000Y-110661928D01*
X202760000Y-110661928D01*
X202760000Y-110014802D01*
X202939802Y-109835000D01*
X204785199Y-109835000D01*
X205240000Y-110289802D01*
X205240001Y-113631956D01*
X205085241Y-113735363D01*
X204885363Y-113935241D01*
X204728320Y-114170273D01*
X204620147Y-114431426D01*
X204565000Y-114708665D01*
X204565000Y-114991335D01*
X204620147Y-115268574D01*
X204728320Y-115529727D01*
X204885363Y-115764759D01*
X205085241Y-115964637D01*
X205320273Y-116121680D01*
X205581426Y-116229853D01*
X205858665Y-116285000D01*
X206141335Y-116285000D01*
X206418574Y-116229853D01*
X206679727Y-116121680D01*
X206914759Y-115964637D01*
X207114637Y-115764759D01*
X207271680Y-115529727D01*
X207379853Y-115268574D01*
X207435000Y-114991335D01*
X207435000Y-114708665D01*
X207379853Y-114431426D01*
X207271680Y-114170273D01*
X207114637Y-113935241D01*
X206914759Y-113735363D01*
X206760000Y-113631957D01*
X206760000Y-110539801D01*
X207589802Y-109710000D01*
X217035199Y-109710000D01*
X217568612Y-110243413D01*
X217463038Y-110348987D01*
X217316939Y-110567641D01*
X217216304Y-110810595D01*
X217165000Y-111068514D01*
X217165000Y-111331486D01*
X217216304Y-111589405D01*
X217316939Y-111832359D01*
X217463038Y-112051013D01*
X217648987Y-112236962D01*
X217867641Y-112383061D01*
X218110595Y-112483696D01*
X218368514Y-112535000D01*
X218631486Y-112535000D01*
X218889405Y-112483696D01*
X219132359Y-112383061D01*
X219351013Y-112236962D01*
X219536962Y-112051013D01*
X219683061Y-111832359D01*
X219783696Y-111589405D01*
X219835000Y-111331486D01*
X219835000Y-111068514D01*
X219783696Y-110810595D01*
X219683061Y-110567641D01*
X219536962Y-110348987D01*
X219351013Y-110163038D01*
X219263244Y-110104393D01*
X219263677Y-110100000D01*
X219260191Y-110064610D01*
X219839802Y-109485000D01*
X222435199Y-109485000D01*
X223112126Y-110161928D01*
X223000000Y-110161928D01*
X222875518Y-110174188D01*
X222755820Y-110210498D01*
X222645506Y-110269463D01*
X222548815Y-110348815D01*
X222469463Y-110445506D01*
X222410498Y-110555820D01*
X222374188Y-110675518D01*
X222361928Y-110800000D01*
X222361928Y-113000000D01*
X222374188Y-113124482D01*
X222410498Y-113244180D01*
X222469463Y-113354494D01*
X222548815Y-113451185D01*
X222645506Y-113530537D01*
X222755820Y-113589502D01*
X222875518Y-113625812D01*
X223000000Y-113638072D01*
X225200000Y-113638072D01*
X225324482Y-113625812D01*
X225444180Y-113589502D01*
X225554494Y-113530537D01*
X225651185Y-113451185D01*
X225730537Y-113354494D01*
X225740000Y-113336790D01*
X225740001Y-121485538D01*
X225637537Y-121238169D01*
X225447663Y-120954002D01*
X225205998Y-120712337D01*
X224921831Y-120522463D01*
X224606081Y-120391675D01*
X224270883Y-120325000D01*
X223929117Y-120325000D01*
X223593919Y-120391675D01*
X223278169Y-120522463D01*
X222994002Y-120712337D01*
X222752337Y-120954002D01*
X222562463Y-121238169D01*
X222560000Y-121244115D01*
X222560000Y-121087343D01*
X222563676Y-121050020D01*
X222560000Y-121012697D01*
X222560000Y-121012687D01*
X222549003Y-120901034D01*
X222505546Y-120757773D01*
X222434974Y-120625744D01*
X222340001Y-120510019D01*
X222311003Y-120486221D01*
X221899792Y-120075010D01*
X222111003Y-119863799D01*
X222140001Y-119840001D01*
X222234974Y-119724276D01*
X222305546Y-119592247D01*
X222349003Y-119448986D01*
X222360000Y-119337333D01*
X222360000Y-119337324D01*
X222363676Y-119300001D01*
X222360000Y-119262678D01*
X222360000Y-117137322D01*
X222363676Y-117099999D01*
X222360000Y-117062676D01*
X222360000Y-117062667D01*
X222349003Y-116951014D01*
X222305546Y-116807753D01*
X222234975Y-116675725D01*
X222234974Y-116675723D01*
X222163799Y-116588997D01*
X222140001Y-116559999D01*
X222111004Y-116536202D01*
X221343803Y-115769002D01*
X221320001Y-115739999D01*
X221204276Y-115645026D01*
X221072247Y-115574454D01*
X220928986Y-115530997D01*
X220817333Y-115520000D01*
X220817322Y-115520000D01*
X220780000Y-115516324D01*
X220742678Y-115520000D01*
X219597775Y-115520000D01*
X219536962Y-115428987D01*
X219351013Y-115243038D01*
X219132359Y-115096939D01*
X218889405Y-114996304D01*
X218631486Y-114945000D01*
X218368514Y-114945000D01*
X218110595Y-114996304D01*
X217867641Y-115096939D01*
X217648987Y-115243038D01*
X217463038Y-115428987D01*
X217316939Y-115647641D01*
X217216304Y-115890595D01*
X217165000Y-116148514D01*
X217165000Y-116411486D01*
X217216304Y-116669405D01*
X217316939Y-116912359D01*
X217463038Y-117131013D01*
X217648987Y-117316962D01*
X217867641Y-117463061D01*
X218110595Y-117563696D01*
X218368514Y-117615000D01*
X218631486Y-117615000D01*
X218889405Y-117563696D01*
X219132359Y-117463061D01*
X219351013Y-117316962D01*
X219536962Y-117131013D01*
X219597775Y-117040000D01*
X220465199Y-117040000D01*
X220840000Y-117414802D01*
X220840001Y-118985197D01*
X220385199Y-119440000D01*
X220042287Y-119440000D01*
X220039502Y-119430820D01*
X219980537Y-119320506D01*
X219901185Y-119223815D01*
X219804494Y-119144463D01*
X219694180Y-119085498D01*
X219574482Y-119049188D01*
X219450000Y-119036928D01*
X217950000Y-119036928D01*
X217825518Y-119049188D01*
X217705820Y-119085498D01*
X217595506Y-119144463D01*
X217498815Y-119223815D01*
X217419463Y-119320506D01*
X217360498Y-119430820D01*
X217324188Y-119550518D01*
X217311928Y-119675000D01*
X217311928Y-120710000D01*
X215967322Y-120710000D01*
X215929999Y-120706324D01*
X215892676Y-120710000D01*
X215884802Y-120710000D01*
X214360000Y-119185199D01*
X214360000Y-116068043D01*
X214514759Y-115964637D01*
X214714637Y-115764759D01*
X214871680Y-115529727D01*
X214979853Y-115268574D01*
X215035000Y-114991335D01*
X215035000Y-114708665D01*
X214979853Y-114431426D01*
X214871680Y-114170273D01*
X214714637Y-113935241D01*
X214514759Y-113735363D01*
X214279727Y-113578320D01*
X214018574Y-113470147D01*
X213741335Y-113415000D01*
X213458665Y-113415000D01*
X213181426Y-113470147D01*
X212920273Y-113578320D01*
X212685241Y-113735363D01*
X212485363Y-113935241D01*
X212328320Y-114170273D01*
X212220147Y-114431426D01*
X212165000Y-114708665D01*
X212165000Y-114991335D01*
X212220147Y-115268574D01*
X212328320Y-115529727D01*
X212485363Y-115764759D01*
X212685241Y-115964637D01*
X212840000Y-116068044D01*
X212840001Y-119462668D01*
X212836324Y-119500000D01*
X212850998Y-119648985D01*
X212894454Y-119792246D01*
X212965026Y-119924276D01*
X213036201Y-120011002D01*
X213060000Y-120040001D01*
X213088998Y-120063799D01*
X214675198Y-121650000D01*
X213558930Y-122766269D01*
X213301184Y-122715000D01*
X212998816Y-122715000D01*
X212702257Y-122773989D01*
X212422905Y-122889701D01*
X212171495Y-123057688D01*
X211957688Y-123271495D01*
X211789701Y-123522905D01*
X211673989Y-123802257D01*
X211615000Y-124098816D01*
X211615000Y-124401184D01*
X211673989Y-124697743D01*
X211789701Y-124977095D01*
X211957688Y-125228505D01*
X212171495Y-125442312D01*
X212314310Y-125537738D01*
X212265525Y-125685920D01*
X213150000Y-126570395D01*
X214034475Y-125685920D01*
X213985690Y-125537738D01*
X214128505Y-125442312D01*
X214342312Y-125228505D01*
X214510299Y-124977095D01*
X214626011Y-124697743D01*
X214685000Y-124401184D01*
X214685000Y-124098816D01*
X214633731Y-123841070D01*
X215428991Y-123045810D01*
X217356036Y-123045810D01*
X217364728Y-123107337D01*
X217457725Y-123316882D01*
X217589816Y-123504258D01*
X217755924Y-123662264D01*
X217949666Y-123784828D01*
X218163596Y-123867239D01*
X218389493Y-123906331D01*
X218573000Y-123746598D01*
X218573000Y-122867000D01*
X218827000Y-122867000D01*
X218827000Y-123746598D01*
X219010507Y-123906331D01*
X219236404Y-123867239D01*
X219450334Y-123784828D01*
X219644076Y-123662264D01*
X219810184Y-123504258D01*
X219942275Y-123316882D01*
X220035272Y-123107337D01*
X220043964Y-123045810D01*
X219918163Y-122867000D01*
X218827000Y-122867000D01*
X218573000Y-122867000D01*
X217481837Y-122867000D01*
X217356036Y-123045810D01*
X215428991Y-123045810D01*
X216244802Y-122230000D01*
X217428042Y-122230000D01*
X217364728Y-122372663D01*
X217356036Y-122434190D01*
X217481837Y-122613000D01*
X218246891Y-122613000D01*
X218247600Y-122613215D01*
X218418021Y-122630000D01*
X218981979Y-122630000D01*
X219152400Y-122613215D01*
X219153109Y-122613000D01*
X219918163Y-122613000D01*
X220043964Y-122434190D01*
X220035272Y-122372663D01*
X219942275Y-122163118D01*
X219901071Y-122104669D01*
X220001885Y-121916060D01*
X220068215Y-121697400D01*
X220090612Y-121470000D01*
X220068215Y-121242600D01*
X220004907Y-121033902D01*
X220039502Y-120969180D01*
X220042287Y-120960000D01*
X220635179Y-120960000D01*
X221040001Y-121364823D01*
X221040000Y-127485198D01*
X220491426Y-128033772D01*
X220493964Y-128015810D01*
X220368163Y-127837000D01*
X219603109Y-127837000D01*
X219602400Y-127836785D01*
X219431979Y-127820000D01*
X218868021Y-127820000D01*
X218697600Y-127836785D01*
X218696891Y-127837000D01*
X217931837Y-127837000D01*
X217806036Y-128015810D01*
X217814728Y-128077337D01*
X217907725Y-128286882D01*
X217948929Y-128345331D01*
X217848115Y-128533940D01*
X217781785Y-128752600D01*
X217759388Y-128980000D01*
X217781785Y-129207400D01*
X217845093Y-129416098D01*
X217810498Y-129480820D01*
X217774188Y-129600518D01*
X217761928Y-129725000D01*
X217761928Y-130775000D01*
X217774188Y-130899482D01*
X217810498Y-131019180D01*
X217869463Y-131129494D01*
X217948815Y-131226185D01*
X218045506Y-131305537D01*
X218155820Y-131364502D01*
X218275518Y-131400812D01*
X218400000Y-131413072D01*
X219900000Y-131413072D01*
X220024482Y-131400812D01*
X220144180Y-131364502D01*
X220254494Y-131305537D01*
X220351185Y-131226185D01*
X220430537Y-131129494D01*
X220489502Y-131019180D01*
X220491428Y-131012832D01*
X220500000Y-131013676D01*
X220537322Y-131010000D01*
X220537333Y-131010000D01*
X220648986Y-130999003D01*
X220792247Y-130955546D01*
X220804301Y-130949103D01*
X222791201Y-132936003D01*
X222814999Y-132965001D01*
X222843997Y-132988799D01*
X222930723Y-133059974D01*
X223062753Y-133130546D01*
X223206014Y-133174003D01*
X223317667Y-133185000D01*
X223317676Y-133185000D01*
X223354999Y-133188676D01*
X223392322Y-133185000D01*
X231387678Y-133185000D01*
X231425000Y-133188676D01*
X231462322Y-133185000D01*
X231462333Y-133185000D01*
X231573986Y-133174003D01*
X231717247Y-133130546D01*
X231849276Y-133059974D01*
X231965001Y-132965001D01*
X231988804Y-132935997D01*
X236265233Y-128659569D01*
X236413195Y-128689000D01*
X236686805Y-128689000D01*
X236955156Y-128635622D01*
X237207938Y-128530916D01*
X237435436Y-128378907D01*
X237628907Y-128185436D01*
X237780916Y-127957938D01*
X237885622Y-127705156D01*
X237939000Y-127436805D01*
X237939000Y-127163195D01*
X237885622Y-126894844D01*
X237780916Y-126642062D01*
X237628907Y-126414564D01*
X237435436Y-126221093D01*
X237207938Y-126069084D01*
X237161865Y-126050000D01*
X237207938Y-126030916D01*
X237435436Y-125878907D01*
X237628907Y-125685436D01*
X237780916Y-125457938D01*
X237885622Y-125205156D01*
X237939000Y-124936805D01*
X237939000Y-124663195D01*
X237909569Y-124515233D01*
X239861003Y-122563799D01*
X239890001Y-122540001D01*
X239916332Y-122507917D01*
X239984974Y-122424277D01*
X240055546Y-122292247D01*
X240074428Y-122230000D01*
X240099003Y-122148986D01*
X240110000Y-122037333D01*
X240110000Y-122037323D01*
X240113676Y-122000000D01*
X240110000Y-121962677D01*
X240110000Y-113687322D01*
X240113676Y-113649999D01*
X240110000Y-113612676D01*
X240110000Y-113612667D01*
X240099003Y-113501014D01*
X240055546Y-113357753D01*
X240019331Y-113290000D01*
X239984974Y-113225723D01*
X239913799Y-113138997D01*
X239890001Y-113109999D01*
X239861004Y-113086202D01*
X234888804Y-108114003D01*
X234865001Y-108084999D01*
X234749276Y-107990026D01*
X234617247Y-107919454D01*
X234473986Y-107875997D01*
X234362333Y-107865000D01*
X234362322Y-107865000D01*
X234325000Y-107861324D01*
X234287678Y-107865000D01*
X225437325Y-107865000D01*
X225400000Y-107861324D01*
X225362675Y-107865000D01*
X225362667Y-107865000D01*
X225251014Y-107875997D01*
X225107753Y-107919454D01*
X224975724Y-107990026D01*
X224859999Y-108084999D01*
X224836201Y-108113997D01*
X224025000Y-108925199D01*
X223313804Y-108214003D01*
X223290001Y-108184999D01*
X223174276Y-108090026D01*
X223042247Y-108019454D01*
X222898986Y-107975997D01*
X222787333Y-107965000D01*
X222787322Y-107965000D01*
X222750000Y-107961324D01*
X222712678Y-107965000D01*
X219562323Y-107965000D01*
X219525000Y-107961324D01*
X219487677Y-107965000D01*
X219487667Y-107965000D01*
X219376014Y-107975997D01*
X219232753Y-108019454D01*
X219100723Y-108090026D01*
X219017083Y-108158668D01*
X218984999Y-108184999D01*
X218961201Y-108213997D01*
X218325000Y-108850199D01*
X217913804Y-108439003D01*
X217890001Y-108409999D01*
X217774276Y-108315026D01*
X217642247Y-108244454D01*
X217498986Y-108200997D01*
X217387333Y-108190000D01*
X217387322Y-108190000D01*
X217350000Y-108186324D01*
X217312678Y-108190000D01*
X207312322Y-108190000D01*
X207274999Y-108186324D01*
X207237676Y-108190000D01*
X207237667Y-108190000D01*
X207126014Y-108200997D01*
X206982753Y-108244454D01*
X206850724Y-108315026D01*
X206734999Y-108409999D01*
X206711201Y-108438997D01*
X206125000Y-109025198D01*
X205663803Y-108564002D01*
X205640001Y-108534999D01*
X205524276Y-108440026D01*
X205392247Y-108369454D01*
X205248986Y-108325997D01*
X205137333Y-108315000D01*
X205137322Y-108315000D01*
X205100000Y-108311324D01*
X205062678Y-108315000D01*
X202662322Y-108315000D01*
X202624999Y-108311324D01*
X202587676Y-108315000D01*
X202587667Y-108315000D01*
X202476014Y-108325997D01*
X202332753Y-108369454D01*
X202200724Y-108440026D01*
X202200722Y-108440027D01*
X202200723Y-108440027D01*
X202113996Y-108511201D01*
X202113992Y-108511205D01*
X202084999Y-108534999D01*
X202061205Y-108563992D01*
X201488997Y-109136202D01*
X201460000Y-109159999D01*
X201436202Y-109188997D01*
X201436201Y-109188998D01*
X201365026Y-109275724D01*
X201294454Y-109407754D01*
X201273754Y-109475997D01*
X201251087Y-109550723D01*
X201250998Y-109551015D01*
X201236324Y-109700000D01*
X201240001Y-109737332D01*
X201240001Y-110661928D01*
X201150000Y-110661928D01*
X201025518Y-110674188D01*
X200905820Y-110710498D01*
X200795506Y-110769463D01*
X200698815Y-110848815D01*
X200619463Y-110945506D01*
X200560498Y-111055820D01*
X200524188Y-111175518D01*
X200511928Y-111300000D01*
X192660000Y-111300000D01*
X192660000Y-108461133D01*
X192706654Y-108695679D01*
X192886440Y-109129721D01*
X193147450Y-109520349D01*
X193479651Y-109852550D01*
X193870279Y-110113560D01*
X194304321Y-110293346D01*
X194765098Y-110385000D01*
X195234902Y-110385000D01*
X195695679Y-110293346D01*
X196129721Y-110113560D01*
X196520349Y-109852550D01*
X196852550Y-109520349D01*
X197113560Y-109129721D01*
X197293346Y-108695679D01*
X197385000Y-108234902D01*
X197385000Y-107765098D01*
X197293346Y-107304321D01*
X197113560Y-106870279D01*
X196852550Y-106479651D01*
X196520349Y-106147450D01*
X196129721Y-105886440D01*
X195695679Y-105706654D01*
X195461133Y-105660000D01*
X239538867Y-105660000D01*
X239304321Y-105706654D01*
%TA.AperFunction,Conductor*%
D24*
G36*
X239304321Y-105706654D02*
G01*
X238870279Y-105886440D01*
X238479651Y-106147450D01*
X238147450Y-106479651D01*
X237886440Y-106870279D01*
X237706654Y-107304321D01*
X237615000Y-107765098D01*
X237615000Y-108234902D01*
X237706654Y-108695679D01*
X237886440Y-109129721D01*
X238147450Y-109520349D01*
X238479651Y-109852550D01*
X238870279Y-110113560D01*
X239304321Y-110293346D01*
X239765098Y-110385000D01*
X240234902Y-110385000D01*
X240695679Y-110293346D01*
X241129721Y-110113560D01*
X241520349Y-109852550D01*
X241852550Y-109520349D01*
X242113560Y-109129721D01*
X242293346Y-108695679D01*
X242340001Y-108461128D01*
X242340000Y-133538867D01*
X242293346Y-133304321D01*
X242113560Y-132870279D01*
X241852550Y-132479651D01*
X241520349Y-132147450D01*
X241129721Y-131886440D01*
X240695679Y-131706654D01*
X240234902Y-131615000D01*
X239765098Y-131615000D01*
X239304321Y-131706654D01*
X238870279Y-131886440D01*
X238479651Y-132147450D01*
X238147450Y-132479651D01*
X237886440Y-132870279D01*
X237706654Y-133304321D01*
X237615000Y-133765098D01*
X237615000Y-134234902D01*
X237706654Y-134695679D01*
X237886440Y-135129721D01*
X238147450Y-135520349D01*
X238479651Y-135852550D01*
X238870279Y-136113560D01*
X239304321Y-136293346D01*
X239538867Y-136340000D01*
X195461133Y-136340000D01*
X195695679Y-136293346D01*
X196129721Y-136113560D01*
X196520349Y-135852550D01*
X196852550Y-135520349D01*
X197113560Y-135129721D01*
X197293346Y-134695679D01*
X197385000Y-134234902D01*
X197385000Y-133765098D01*
X197293346Y-133304321D01*
X197113560Y-132870279D01*
X196852550Y-132479651D01*
X196520349Y-132147450D01*
X196129721Y-131886440D01*
X195695679Y-131706654D01*
X195234902Y-131615000D01*
X194765098Y-131615000D01*
X194304321Y-131706654D01*
X193870279Y-131886440D01*
X193479651Y-132147450D01*
X193147450Y-132479651D01*
X192886440Y-132870279D01*
X192706654Y-133304321D01*
X192660000Y-133538867D01*
X192660000Y-130314080D01*
X212265525Y-130314080D01*
X212349208Y-130568261D01*
X212621775Y-130699158D01*
X212914642Y-130774365D01*
X213216553Y-130790991D01*
X213515907Y-130748397D01*
X213801199Y-130648222D01*
X213950792Y-130568261D01*
X214034475Y-130314080D01*
X213150000Y-129429605D01*
X212265525Y-130314080D01*
X192660000Y-130314080D01*
X192660000Y-129316553D01*
X211609009Y-129316553D01*
X211651603Y-129615907D01*
X211751778Y-129901199D01*
X211831739Y-130050792D01*
X212085920Y-130134475D01*
X212970395Y-129250000D01*
X213329605Y-129250000D01*
X214214080Y-130134475D01*
X214468261Y-130050792D01*
X214599158Y-129778225D01*
X214674365Y-129485358D01*
X214690991Y-129183447D01*
X214648397Y-128884093D01*
X214548222Y-128598801D01*
X214468261Y-128449208D01*
X214214080Y-128365525D01*
X213329605Y-129250000D01*
X212970395Y-129250000D01*
X212085920Y-128365525D01*
X211831739Y-128449208D01*
X211700842Y-128721775D01*
X211625635Y-129014642D01*
X211609009Y-129316553D01*
X192660000Y-129316553D01*
X192660000Y-127814080D01*
X212265525Y-127814080D01*
X212326735Y-128000000D01*
X212265525Y-128185920D01*
X213150000Y-129070395D01*
X214034475Y-128185920D01*
X213973265Y-128000000D01*
X214034475Y-127814080D01*
X213150000Y-126929605D01*
X212265525Y-127814080D01*
X192660000Y-127814080D01*
X192660000Y-126816553D01*
X211609009Y-126816553D01*
X211651603Y-127115907D01*
X211751778Y-127401199D01*
X211831739Y-127550792D01*
X212085920Y-127634475D01*
X212970395Y-126750000D01*
X213329605Y-126750000D01*
X214214080Y-127634475D01*
X214468261Y-127550792D01*
X214538664Y-127404190D01*
X217806036Y-127404190D01*
X217931837Y-127583000D01*
X219023000Y-127583000D01*
X219023000Y-126703402D01*
X219277000Y-126703402D01*
X219277000Y-127583000D01*
X220368163Y-127583000D01*
X220493964Y-127404190D01*
X220485272Y-127342663D01*
X220392275Y-127133118D01*
X220260184Y-126945742D01*
X220094076Y-126787736D01*
X219900334Y-126665172D01*
X219686404Y-126582761D01*
X219460507Y-126543669D01*
X219277000Y-126703402D01*
X219023000Y-126703402D01*
X218839493Y-126543669D01*
X218613596Y-126582761D01*
X218399666Y-126665172D01*
X218205924Y-126787736D01*
X218039816Y-126945742D01*
X217907725Y-127133118D01*
X217814728Y-127342663D01*
X217806036Y-127404190D01*
X214538664Y-127404190D01*
X214599158Y-127278225D01*
X214674365Y-126985358D01*
X214690991Y-126683447D01*
X214648397Y-126384093D01*
X214548222Y-126098801D01*
X214468261Y-125949208D01*
X214214080Y-125865525D01*
X213329605Y-126750000D01*
X212970395Y-126750000D01*
X212085920Y-125865525D01*
X211831739Y-125949208D01*
X211700842Y-126221775D01*
X211625635Y-126514642D01*
X211609009Y-126816553D01*
X192660000Y-126816553D01*
X192660000Y-115046890D01*
X200558524Y-115046890D01*
X200603175Y-115194099D01*
X200728359Y-115456920D01*
X200902412Y-115690269D01*
X201118645Y-115885178D01*
X201368748Y-116034157D01*
X201643109Y-116131481D01*
X201873000Y-116010814D01*
X201873000Y-114817000D01*
X202127000Y-114817000D01*
X202127000Y-116010814D01*
X202356891Y-116131481D01*
X202631252Y-116034157D01*
X202881355Y-115885178D01*
X203097588Y-115690269D01*
X203271641Y-115456920D01*
X203396825Y-115194099D01*
X203441476Y-115046890D01*
X203320155Y-114817000D01*
X202127000Y-114817000D01*
X201873000Y-114817000D01*
X200679845Y-114817000D01*
X200558524Y-115046890D01*
X192660000Y-115046890D01*
X192660000Y-111300000D01*
X200511928Y-111300000D01*
X200511928Y-113000000D01*
X200524188Y-113124482D01*
X200560498Y-113244180D01*
X200619463Y-113354494D01*
X200698815Y-113451185D01*
X200795506Y-113530537D01*
X200905820Y-113589502D01*
X200986466Y-113613966D01*
X200902412Y-113689731D01*
X200728359Y-113923080D01*
X200603175Y-114185901D01*
X200558524Y-114333110D01*
X200679845Y-114563000D01*
X201873000Y-114563000D01*
X201873000Y-114543000D01*
X202127000Y-114543000D01*
X202127000Y-114563000D01*
X203320155Y-114563000D01*
X203441476Y-114333110D01*
X203396825Y-114185901D01*
X203271641Y-113923080D01*
X203097588Y-113689731D01*
X203013534Y-113613966D01*
X203094180Y-113589502D01*
X203204494Y-113530537D01*
X203301185Y-113451185D01*
X203380537Y-113354494D01*
X203439502Y-113244180D01*
X203475812Y-113124482D01*
X203488072Y-113000000D01*
X203488072Y-111300000D01*
X203475812Y-111175518D01*
X203439502Y-111055820D01*
X203380537Y-110945506D01*
X203301185Y-110848815D01*
X203204494Y-110769463D01*
X203094180Y-110710498D01*
X202974482Y-110674188D01*
X202850000Y-110661928D01*
X202760000Y-110661928D01*
X202760000Y-110014802D01*
X202939802Y-109835000D01*
X204785199Y-109835000D01*
X205240000Y-110289802D01*
X205240001Y-113631956D01*
X205085241Y-113735363D01*
X204885363Y-113935241D01*
X204728320Y-114170273D01*
X204620147Y-114431426D01*
X204565000Y-114708665D01*
X204565000Y-114991335D01*
X204620147Y-115268574D01*
X204728320Y-115529727D01*
X204885363Y-115764759D01*
X205085241Y-115964637D01*
X205320273Y-116121680D01*
X205581426Y-116229853D01*
X205858665Y-116285000D01*
X206141335Y-116285000D01*
X206418574Y-116229853D01*
X206679727Y-116121680D01*
X206914759Y-115964637D01*
X207114637Y-115764759D01*
X207271680Y-115529727D01*
X207379853Y-115268574D01*
X207435000Y-114991335D01*
X207435000Y-114708665D01*
X207379853Y-114431426D01*
X207271680Y-114170273D01*
X207114637Y-113935241D01*
X206914759Y-113735363D01*
X206760000Y-113631957D01*
X206760000Y-110539801D01*
X207589802Y-109710000D01*
X217035199Y-109710000D01*
X217568612Y-110243413D01*
X217463038Y-110348987D01*
X217316939Y-110567641D01*
X217216304Y-110810595D01*
X217165000Y-111068514D01*
X217165000Y-111331486D01*
X217216304Y-111589405D01*
X217316939Y-111832359D01*
X217463038Y-112051013D01*
X217648987Y-112236962D01*
X217867641Y-112383061D01*
X218110595Y-112483696D01*
X218368514Y-112535000D01*
X218631486Y-112535000D01*
X218889405Y-112483696D01*
X219132359Y-112383061D01*
X219351013Y-112236962D01*
X219536962Y-112051013D01*
X219683061Y-111832359D01*
X219783696Y-111589405D01*
X219835000Y-111331486D01*
X219835000Y-111068514D01*
X219783696Y-110810595D01*
X219683061Y-110567641D01*
X219536962Y-110348987D01*
X219351013Y-110163038D01*
X219263244Y-110104393D01*
X219263677Y-110100000D01*
X219260191Y-110064610D01*
X219839802Y-109485000D01*
X222435199Y-109485000D01*
X223112126Y-110161928D01*
X223000000Y-110161928D01*
X222875518Y-110174188D01*
X222755820Y-110210498D01*
X222645506Y-110269463D01*
X222548815Y-110348815D01*
X222469463Y-110445506D01*
X222410498Y-110555820D01*
X222374188Y-110675518D01*
X222361928Y-110800000D01*
X222361928Y-113000000D01*
X222374188Y-113124482D01*
X222410498Y-113244180D01*
X222469463Y-113354494D01*
X222548815Y-113451185D01*
X222645506Y-113530537D01*
X222755820Y-113589502D01*
X222875518Y-113625812D01*
X223000000Y-113638072D01*
X225200000Y-113638072D01*
X225324482Y-113625812D01*
X225444180Y-113589502D01*
X225554494Y-113530537D01*
X225651185Y-113451185D01*
X225730537Y-113354494D01*
X225740000Y-113336790D01*
X225740001Y-121485538D01*
X225637537Y-121238169D01*
X225447663Y-120954002D01*
X225205998Y-120712337D01*
X224921831Y-120522463D01*
X224606081Y-120391675D01*
X224270883Y-120325000D01*
X223929117Y-120325000D01*
X223593919Y-120391675D01*
X223278169Y-120522463D01*
X222994002Y-120712337D01*
X222752337Y-120954002D01*
X222562463Y-121238169D01*
X222560000Y-121244115D01*
X222560000Y-121087343D01*
X222563676Y-121050020D01*
X222560000Y-121012697D01*
X222560000Y-121012687D01*
X222549003Y-120901034D01*
X222505546Y-120757773D01*
X222434974Y-120625744D01*
X222340001Y-120510019D01*
X222311003Y-120486221D01*
X221899792Y-120075010D01*
X222111003Y-119863799D01*
X222140001Y-119840001D01*
X222234974Y-119724276D01*
X222305546Y-119592247D01*
X222349003Y-119448986D01*
X222360000Y-119337333D01*
X222360000Y-119337324D01*
X222363676Y-119300001D01*
X222360000Y-119262678D01*
X222360000Y-117137322D01*
X222363676Y-117099999D01*
X222360000Y-117062676D01*
X222360000Y-117062667D01*
X222349003Y-116951014D01*
X222305546Y-116807753D01*
X222234975Y-116675725D01*
X222234974Y-116675723D01*
X222163799Y-116588997D01*
X222140001Y-116559999D01*
X222111004Y-116536202D01*
X221343803Y-115769002D01*
X221320001Y-115739999D01*
X221204276Y-115645026D01*
X221072247Y-115574454D01*
X220928986Y-115530997D01*
X220817333Y-115520000D01*
X220817322Y-115520000D01*
X220780000Y-115516324D01*
X220742678Y-115520000D01*
X219597775Y-115520000D01*
X219536962Y-115428987D01*
X219351013Y-115243038D01*
X219132359Y-115096939D01*
X218889405Y-114996304D01*
X218631486Y-114945000D01*
X218368514Y-114945000D01*
X218110595Y-114996304D01*
X217867641Y-115096939D01*
X217648987Y-115243038D01*
X217463038Y-115428987D01*
X217316939Y-115647641D01*
X217216304Y-115890595D01*
X217165000Y-116148514D01*
X217165000Y-116411486D01*
X217216304Y-116669405D01*
X217316939Y-116912359D01*
X217463038Y-117131013D01*
X217648987Y-117316962D01*
X217867641Y-117463061D01*
X218110595Y-117563696D01*
X218368514Y-117615000D01*
X218631486Y-117615000D01*
X218889405Y-117563696D01*
X219132359Y-117463061D01*
X219351013Y-117316962D01*
X219536962Y-117131013D01*
X219597775Y-117040000D01*
X220465199Y-117040000D01*
X220840000Y-117414802D01*
X220840001Y-118985197D01*
X220385199Y-119440000D01*
X220042287Y-119440000D01*
X220039502Y-119430820D01*
X219980537Y-119320506D01*
X219901185Y-119223815D01*
X219804494Y-119144463D01*
X219694180Y-119085498D01*
X219574482Y-119049188D01*
X219450000Y-119036928D01*
X217950000Y-119036928D01*
X217825518Y-119049188D01*
X217705820Y-119085498D01*
X217595506Y-119144463D01*
X217498815Y-119223815D01*
X217419463Y-119320506D01*
X217360498Y-119430820D01*
X217324188Y-119550518D01*
X217311928Y-119675000D01*
X217311928Y-120710000D01*
X215967322Y-120710000D01*
X215929999Y-120706324D01*
X215892676Y-120710000D01*
X215884802Y-120710000D01*
X214360000Y-119185199D01*
X214360000Y-116068043D01*
X214514759Y-115964637D01*
X214714637Y-115764759D01*
X214871680Y-115529727D01*
X214979853Y-115268574D01*
X215035000Y-114991335D01*
X215035000Y-114708665D01*
X214979853Y-114431426D01*
X214871680Y-114170273D01*
X214714637Y-113935241D01*
X214514759Y-113735363D01*
X214279727Y-113578320D01*
X214018574Y-113470147D01*
X213741335Y-113415000D01*
X213458665Y-113415000D01*
X213181426Y-113470147D01*
X212920273Y-113578320D01*
X212685241Y-113735363D01*
X212485363Y-113935241D01*
X212328320Y-114170273D01*
X212220147Y-114431426D01*
X212165000Y-114708665D01*
X212165000Y-114991335D01*
X212220147Y-115268574D01*
X212328320Y-115529727D01*
X212485363Y-115764759D01*
X212685241Y-115964637D01*
X212840000Y-116068044D01*
X212840001Y-119462668D01*
X212836324Y-119500000D01*
X212850998Y-119648985D01*
X212894454Y-119792246D01*
X212965026Y-119924276D01*
X213036201Y-120011002D01*
X213060000Y-120040001D01*
X213088998Y-120063799D01*
X214675198Y-121650000D01*
X213558930Y-122766269D01*
X213301184Y-122715000D01*
X212998816Y-122715000D01*
X212702257Y-122773989D01*
X212422905Y-122889701D01*
X212171495Y-123057688D01*
X211957688Y-123271495D01*
X211789701Y-123522905D01*
X211673989Y-123802257D01*
X211615000Y-124098816D01*
X211615000Y-124401184D01*
X211673989Y-124697743D01*
X211789701Y-124977095D01*
X211957688Y-125228505D01*
X212171495Y-125442312D01*
X212314310Y-125537738D01*
X212265525Y-125685920D01*
X213150000Y-126570395D01*
X214034475Y-125685920D01*
X213985690Y-125537738D01*
X214128505Y-125442312D01*
X214342312Y-125228505D01*
X214510299Y-124977095D01*
X214626011Y-124697743D01*
X214685000Y-124401184D01*
X214685000Y-124098816D01*
X214633731Y-123841070D01*
X215428991Y-123045810D01*
X217356036Y-123045810D01*
X217364728Y-123107337D01*
X217457725Y-123316882D01*
X217589816Y-123504258D01*
X217755924Y-123662264D01*
X217949666Y-123784828D01*
X218163596Y-123867239D01*
X218389493Y-123906331D01*
X218573000Y-123746598D01*
X218573000Y-122867000D01*
X218827000Y-122867000D01*
X218827000Y-123746598D01*
X219010507Y-123906331D01*
X219236404Y-123867239D01*
X219450334Y-123784828D01*
X219644076Y-123662264D01*
X219810184Y-123504258D01*
X219942275Y-123316882D01*
X220035272Y-123107337D01*
X220043964Y-123045810D01*
X219918163Y-122867000D01*
X218827000Y-122867000D01*
X218573000Y-122867000D01*
X217481837Y-122867000D01*
X217356036Y-123045810D01*
X215428991Y-123045810D01*
X216244802Y-122230000D01*
X217428042Y-122230000D01*
X217364728Y-122372663D01*
X217356036Y-122434190D01*
X217481837Y-122613000D01*
X218246891Y-122613000D01*
X218247600Y-122613215D01*
X218418021Y-122630000D01*
X218981979Y-122630000D01*
X219152400Y-122613215D01*
X219153109Y-122613000D01*
X219918163Y-122613000D01*
X220043964Y-122434190D01*
X220035272Y-122372663D01*
X219942275Y-122163118D01*
X219901071Y-122104669D01*
X220001885Y-121916060D01*
X220068215Y-121697400D01*
X220090612Y-121470000D01*
X220068215Y-121242600D01*
X220004907Y-121033902D01*
X220039502Y-120969180D01*
X220042287Y-120960000D01*
X220635179Y-120960000D01*
X221040001Y-121364823D01*
X221040000Y-127485198D01*
X220491426Y-128033772D01*
X220493964Y-128015810D01*
X220368163Y-127837000D01*
X219603109Y-127837000D01*
X219602400Y-127836785D01*
X219431979Y-127820000D01*
X218868021Y-127820000D01*
X218697600Y-127836785D01*
X218696891Y-127837000D01*
X217931837Y-127837000D01*
X217806036Y-128015810D01*
X217814728Y-128077337D01*
X217907725Y-128286882D01*
X217948929Y-128345331D01*
X217848115Y-128533940D01*
X217781785Y-128752600D01*
X217759388Y-128980000D01*
X217781785Y-129207400D01*
X217845093Y-129416098D01*
X217810498Y-129480820D01*
X217774188Y-129600518D01*
X217761928Y-129725000D01*
X217761928Y-130775000D01*
X217774188Y-130899482D01*
X217810498Y-131019180D01*
X217869463Y-131129494D01*
X217948815Y-131226185D01*
X218045506Y-131305537D01*
X218155820Y-131364502D01*
X218275518Y-131400812D01*
X218400000Y-131413072D01*
X219900000Y-131413072D01*
X220024482Y-131400812D01*
X220144180Y-131364502D01*
X220254494Y-131305537D01*
X220351185Y-131226185D01*
X220430537Y-131129494D01*
X220489502Y-131019180D01*
X220491428Y-131012832D01*
X220500000Y-131013676D01*
X220537322Y-131010000D01*
X220537333Y-131010000D01*
X220648986Y-130999003D01*
X220792247Y-130955546D01*
X220804301Y-130949103D01*
X222791201Y-132936003D01*
X222814999Y-132965001D01*
X222843997Y-132988799D01*
X222930723Y-133059974D01*
X223062753Y-133130546D01*
X223206014Y-133174003D01*
X223317667Y-133185000D01*
X223317676Y-133185000D01*
X223354999Y-133188676D01*
X223392322Y-133185000D01*
X231387678Y-133185000D01*
X231425000Y-133188676D01*
X231462322Y-133185000D01*
X231462333Y-133185000D01*
X231573986Y-133174003D01*
X231717247Y-133130546D01*
X231849276Y-133059974D01*
X231965001Y-132965001D01*
X231988804Y-132935997D01*
X236265233Y-128659569D01*
X236413195Y-128689000D01*
X236686805Y-128689000D01*
X236955156Y-128635622D01*
X237207938Y-128530916D01*
X237435436Y-128378907D01*
X237628907Y-128185436D01*
X237780916Y-127957938D01*
X237885622Y-127705156D01*
X237939000Y-127436805D01*
X237939000Y-127163195D01*
X237885622Y-126894844D01*
X237780916Y-126642062D01*
X237628907Y-126414564D01*
X237435436Y-126221093D01*
X237207938Y-126069084D01*
X237161865Y-126050000D01*
X237207938Y-126030916D01*
X237435436Y-125878907D01*
X237628907Y-125685436D01*
X237780916Y-125457938D01*
X237885622Y-125205156D01*
X237939000Y-124936805D01*
X237939000Y-124663195D01*
X237909569Y-124515233D01*
X239861003Y-122563799D01*
X239890001Y-122540001D01*
X239916332Y-122507917D01*
X239984974Y-122424277D01*
X240055546Y-122292247D01*
X240074428Y-122230000D01*
X240099003Y-122148986D01*
X240110000Y-122037333D01*
X240110000Y-122037323D01*
X240113676Y-122000000D01*
X240110000Y-121962677D01*
X240110000Y-113687322D01*
X240113676Y-113649999D01*
X240110000Y-113612676D01*
X240110000Y-113612667D01*
X240099003Y-113501014D01*
X240055546Y-113357753D01*
X240019331Y-113290000D01*
X239984974Y-113225723D01*
X239913799Y-113138997D01*
X239890001Y-113109999D01*
X239861004Y-113086202D01*
X234888804Y-108114003D01*
X234865001Y-108084999D01*
X234749276Y-107990026D01*
X234617247Y-107919454D01*
X234473986Y-107875997D01*
X234362333Y-107865000D01*
X234362322Y-107865000D01*
X234325000Y-107861324D01*
X234287678Y-107865000D01*
X225437325Y-107865000D01*
X225400000Y-107861324D01*
X225362675Y-107865000D01*
X225362667Y-107865000D01*
X225251014Y-107875997D01*
X225107753Y-107919454D01*
X224975724Y-107990026D01*
X224859999Y-108084999D01*
X224836201Y-108113997D01*
X224025000Y-108925199D01*
X223313804Y-108214003D01*
X223290001Y-108184999D01*
X223174276Y-108090026D01*
X223042247Y-108019454D01*
X222898986Y-107975997D01*
X222787333Y-107965000D01*
X222787322Y-107965000D01*
X222750000Y-107961324D01*
X222712678Y-107965000D01*
X219562323Y-107965000D01*
X219525000Y-107961324D01*
X219487677Y-107965000D01*
X219487667Y-107965000D01*
X219376014Y-107975997D01*
X219232753Y-108019454D01*
X219100723Y-108090026D01*
X219017083Y-108158668D01*
X218984999Y-108184999D01*
X218961201Y-108213997D01*
X218325000Y-108850199D01*
X217913804Y-108439003D01*
X217890001Y-108409999D01*
X217774276Y-108315026D01*
X217642247Y-108244454D01*
X217498986Y-108200997D01*
X217387333Y-108190000D01*
X217387322Y-108190000D01*
X217350000Y-108186324D01*
X217312678Y-108190000D01*
X207312322Y-108190000D01*
X207274999Y-108186324D01*
X207237676Y-108190000D01*
X207237667Y-108190000D01*
X207126014Y-108200997D01*
X206982753Y-108244454D01*
X206850724Y-108315026D01*
X206734999Y-108409999D01*
X206711201Y-108438997D01*
X206125000Y-109025198D01*
X205663803Y-108564002D01*
X205640001Y-108534999D01*
X205524276Y-108440026D01*
X205392247Y-108369454D01*
X205248986Y-108325997D01*
X205137333Y-108315000D01*
X205137322Y-108315000D01*
X205100000Y-108311324D01*
X205062678Y-108315000D01*
X202662322Y-108315000D01*
X202624999Y-108311324D01*
X202587676Y-108315000D01*
X202587667Y-108315000D01*
X202476014Y-108325997D01*
X202332753Y-108369454D01*
X202200724Y-108440026D01*
X202200722Y-108440027D01*
X202200723Y-108440027D01*
X202113996Y-108511201D01*
X202113992Y-108511205D01*
X202084999Y-108534999D01*
X202061205Y-108563992D01*
X201488997Y-109136202D01*
X201460000Y-109159999D01*
X201436202Y-109188997D01*
X201436201Y-109188998D01*
X201365026Y-109275724D01*
X201294454Y-109407754D01*
X201273754Y-109475997D01*
X201251087Y-109550723D01*
X201250998Y-109551015D01*
X201236324Y-109700000D01*
X201240001Y-109737332D01*
X201240001Y-110661928D01*
X201150000Y-110661928D01*
X201025518Y-110674188D01*
X200905820Y-110710498D01*
X200795506Y-110769463D01*
X200698815Y-110848815D01*
X200619463Y-110945506D01*
X200560498Y-111055820D01*
X200524188Y-111175518D01*
X200511928Y-111300000D01*
X192660000Y-111300000D01*
X192660000Y-108461133D01*
X192706654Y-108695679D01*
X192886440Y-109129721D01*
X193147450Y-109520349D01*
X193479651Y-109852550D01*
X193870279Y-110113560D01*
X194304321Y-110293346D01*
X194765098Y-110385000D01*
X195234902Y-110385000D01*
X195695679Y-110293346D01*
X196129721Y-110113560D01*
X196520349Y-109852550D01*
X196852550Y-109520349D01*
X197113560Y-109129721D01*
X197293346Y-108695679D01*
X197385000Y-108234902D01*
X197385000Y-107765098D01*
X197293346Y-107304321D01*
X197113560Y-106870279D01*
X196852550Y-106479651D01*
X196520349Y-106147450D01*
X196129721Y-105886440D01*
X195695679Y-105706654D01*
X195461133Y-105660000D01*
X239538867Y-105660000D01*
X239304321Y-105706654D01*
G37*
%TD.AperFunction*%
%TD*%
M02*
