M48
; DRILL file {KiCad (5.1.12)-1} date 08/22/23 11:28:09
; FORMAT={-:-/ absolute / inch / decimal}
; #@! TF.CreationDate,2023-08-22T11:28:09+05:30
; #@! TF.GenerationSoftware,Kicad,Pcbnew,(5.1.12)-1
; #@! TF.FileFunction,Plated,1,2,PTH
FMAT,2
INCH
T1C0.0276
T2C0.0295
T3C0.0315
T4C0.0394
T5C0.0433
T6C0.1339
%
G90
G05
T1
X8.6024Y-4.378
X8.6024Y-4.578
T2
X8.6102Y-4.7323
X8.6102Y-4.7823
X8.6102Y-4.8323
X8.628Y-5.028
X8.628Y-5.078
X8.628Y-5.128
T3
X8.1102Y-4.5217
X8.4094Y-4.5217
T4
X7.9528Y-4.4154
X7.9528Y-4.5154
X8.3917Y-4.8917
X8.3917Y-4.9902
X8.3917Y-5.0886
X8.8386Y-5.0118
X8.8386Y-5.1118
X9.0138Y-4.9134
X9.0138Y-5.0118
X9.313Y-4.5157
X9.313Y-4.9134
X9.313Y-5.0118
T5
X8.8228Y-4.4055
X8.8228Y-4.8055
T6
X7.6772Y-4.252
X7.6772Y-5.2756
X9.4488Y-4.252
X9.4488Y-5.2756
T0
M30
