%TF.GenerationSoftware,KiCad,Pcbnew,(5.1.12)-1*%
%TF.CreationDate,2023-08-19T11:40:11+05:30*%
%TF.ProjectId,burglar,62757267-6c61-4722-9e6b-696361645f70,rev?*%
%TF.SameCoordinates,Original*%
%TF.FileFunction,Copper,L2,Bot*%
%TF.FilePolarity,Positive*%
%FSLAX46Y46*%
G04 Gerber Fmt 4.6, Leading zero omitted, Abs format (unit mm)*
G04 Created by KiCad (PCBNEW (5.1.12)-1) date 2023-08-19 11:40:11*
%MOMM*%
%LPD*%
G01*
G04 APERTURE LIST*
%TA.AperFunction,ComponentPad*%
%ADD10C,1.498000*%
%TD*%
%TA.AperFunction,ComponentPad*%
%ADD11R,1.498000X1.498000*%
%TD*%
%TA.AperFunction,ComponentPad*%
%ADD12O,1.400000X1.400000*%
%TD*%
%TA.AperFunction,ComponentPad*%
%ADD13C,1.400000*%
%TD*%
%TA.AperFunction,ComponentPad*%
%ADD14O,1.050000X1.500000*%
%TD*%
%TA.AperFunction,ComponentPad*%
%ADD15R,1.050000X1.500000*%
%TD*%
%TA.AperFunction,ComponentPad*%
%ADD16O,1.700000X1.700000*%
%TD*%
%TA.AperFunction,ComponentPad*%
%ADD17R,1.700000X1.700000*%
%TD*%
%TA.AperFunction,ComponentPad*%
%ADD18R,1.200000X1.200000*%
%TD*%
%TA.AperFunction,ComponentPad*%
%ADD19C,1.200000*%
%TD*%
%TA.AperFunction,ComponentPad*%
%ADD20C,1.600000*%
%TD*%
%TA.AperFunction,ViaPad*%
%ADD21C,3.500000*%
%TD*%
%TA.AperFunction,Conductor*%
%ADD22C,0.250000*%
%TD*%
%TA.AperFunction,Conductor*%
%ADD23C,0.254000*%
%TD*%
%TA.AperFunction,Conductor*%
%ADD24C,0.100000*%
%TD*%
G04 APERTURE END LIST*
D10*
%TO.P,S1,4*%
%TO.N,Net-(C1-Pad2)*%
X113650000Y-105200000D03*
%TO.P,S1,2*%
%TO.N,Earth*%
X113650000Y-111700000D03*
%TO.P,S1,3*%
%TO.N,Net-(C1-Pad2)*%
X109150000Y-105200000D03*
D11*
%TO.P,S1,1*%
%TO.N,Earth*%
X109150000Y-111700000D03*
%TD*%
D12*
%TO.P,R2,2*%
%TO.N,Earth*%
X121680000Y-113600000D03*
D13*
%TO.P,R2,1*%
%TO.N,Net-(Q1-Pad3)*%
X116600000Y-113600000D03*
%TD*%
D12*
%TO.P,R1,2*%
%TO.N,Net-(C1-Pad2)*%
X116370000Y-103150000D03*
D13*
%TO.P,R1,1*%
%TO.N,Net-(BT1-Pad1)*%
X121450000Y-103150000D03*
%TD*%
D14*
%TO.P,Q2,2*%
%TO.N,Net-(Q1-Pad1)*%
X125930000Y-108000000D03*
%TO.P,Q2,3*%
%TO.N,Net-(C1-Pad1)*%
X124660000Y-108000000D03*
D15*
%TO.P,Q2,1*%
%TO.N,Net-(BT1-Pad1)*%
X127200000Y-108000000D03*
%TD*%
D14*
%TO.P,Q1,2*%
%TO.N,Net-(C1-Pad2)*%
X118730000Y-108000000D03*
%TO.P,Q1,3*%
%TO.N,Net-(Q1-Pad3)*%
X117460000Y-108000000D03*
D15*
%TO.P,Q1,1*%
%TO.N,Net-(Q1-Pad1)*%
X120000000Y-108000000D03*
%TD*%
D16*
%TO.P,LS1,2*%
%TO.N,Earth*%
X130900000Y-110460000D03*
D17*
%TO.P,LS1,1*%
%TO.N,Net-(C1-Pad1)*%
X130900000Y-113000000D03*
%TD*%
D18*
%TO.P,C2,1*%
%TO.N,Net-(BT1-Pad1)*%
X124800000Y-103000000D03*
D19*
%TO.P,C2,2*%
%TO.N,Earth*%
X126800000Y-103000000D03*
%TD*%
D20*
%TO.P,C1,1*%
%TO.N,Net-(C1-Pad1)*%
X127100000Y-113550000D03*
%TO.P,C1,2*%
%TO.N,Net-(C1-Pad2)*%
X124600000Y-113550000D03*
%TD*%
D17*
%TO.P,BT1,1*%
%TO.N,Net-(BT1-Pad1)*%
X130800000Y-105800000D03*
D16*
%TO.P,BT1,2*%
%TO.N,Earth*%
X130800000Y-103260000D03*
%TD*%
D21*
%TO.N,*%
X136000000Y-100000000D03*
X136000000Y-117000000D03*
X105000000Y-117000000D03*
X105000000Y-100000000D03*
%TD*%
D22*
%TO.N,Earth*%
X109150000Y-111700000D02*
X109150000Y-113350000D01*
X109150000Y-113350000D02*
X109800000Y-114000000D01*
X109800000Y-114000000D02*
X113000000Y-114000000D01*
X113650000Y-113350000D02*
X113650000Y-111700000D01*
X113000000Y-114000000D02*
X113650000Y-113350000D01*
X114150000Y-111200000D02*
X113650000Y-111700000D01*
%TO.N,Net-(BT1-Pad1)*%
X121450000Y-103150000D02*
X121450000Y-101650000D01*
X121450000Y-101650000D02*
X122000000Y-101100000D01*
X122000000Y-101100000D02*
X124300000Y-101100000D01*
X124800000Y-101600000D02*
X124800000Y-103000000D01*
X124300000Y-101100000D02*
X124800000Y-101600000D01*
X132600000Y-105800000D02*
X130800000Y-105800000D01*
X133175000Y-105225000D02*
X132600000Y-105800000D01*
X133175000Y-101275000D02*
X133175000Y-105225000D01*
X132700000Y-100800000D02*
X133175000Y-101275000D01*
X127000000Y-100800000D02*
X132700000Y-100800000D01*
X124800000Y-103000000D02*
X127000000Y-100800000D01*
X127200000Y-106300000D02*
X127200000Y-108000000D01*
X130300000Y-105300000D02*
X128200000Y-105300000D01*
X128200000Y-105300000D02*
X127200000Y-106300000D01*
X130800000Y-105800000D02*
X130300000Y-105300000D01*
%TO.N,Net-(C1-Pad2)*%
X109150000Y-105200000D02*
X109150000Y-103550000D01*
X109150000Y-103550000D02*
X109800000Y-102900000D01*
X109800000Y-102900000D02*
X113000000Y-102900000D01*
X113650000Y-103550000D02*
X113650000Y-105200000D01*
X113000000Y-102900000D02*
X113650000Y-103550000D01*
X116370000Y-103150000D02*
X116370000Y-104430000D01*
X115600000Y-105200000D02*
X113650000Y-105200000D01*
X116370000Y-101970000D02*
X116370000Y-103150000D01*
X109225000Y-101625000D02*
X116025000Y-101625000D01*
X108500000Y-116000000D02*
X107300000Y-114800000D01*
X116025000Y-101625000D02*
X116370000Y-101970000D01*
X123500000Y-116000000D02*
X108500000Y-116000000D01*
X107300000Y-103550000D02*
X109225000Y-101625000D01*
X124600000Y-114900000D02*
X123500000Y-116000000D01*
X107300000Y-114800000D02*
X107300000Y-103550000D01*
X124600000Y-113550000D02*
X124600000Y-114900000D01*
X118730000Y-108000000D02*
X118730000Y-105130000D01*
X118150000Y-104550000D02*
X116250000Y-104550000D01*
X118730000Y-105130000D02*
X118150000Y-104550000D01*
X116250000Y-104550000D02*
X115600000Y-105200000D01*
X116370000Y-104430000D02*
X116250000Y-104550000D01*
%TO.N,Net-(C1-Pad1)*%
X126850000Y-113550000D02*
X127100000Y-113550000D01*
X124660000Y-108000000D02*
X123350000Y-108000000D01*
X123350000Y-108000000D02*
X122450000Y-108900000D01*
X122450000Y-108900000D02*
X122450000Y-110550000D01*
X122450000Y-110550000D02*
X123500000Y-111600000D01*
X125150000Y-111600000D02*
X127100000Y-113550000D01*
X123500000Y-111600000D02*
X125150000Y-111600000D01*
X127100000Y-113550000D02*
X127100000Y-115000000D01*
X127100000Y-115000000D02*
X127700000Y-115600000D01*
X127700000Y-115600000D02*
X130600000Y-115600000D01*
X130600000Y-115600000D02*
X130900000Y-115300000D01*
X130900000Y-115300000D02*
X130900000Y-113000000D01*
%TO.N,Net-(Q1-Pad1)*%
X125930000Y-106230000D02*
X125930000Y-108000000D01*
X120900000Y-105500000D02*
X125200000Y-105500000D01*
X125200000Y-105500000D02*
X125930000Y-106230000D01*
X120000000Y-106400000D02*
X120900000Y-105500000D01*
X120000000Y-108000000D02*
X120000000Y-106400000D01*
%TO.N,Net-(Q1-Pad3)*%
X115400000Y-112400000D02*
X116600000Y-113600000D01*
X115400000Y-109600000D02*
X115400000Y-112400000D01*
X117000000Y-108000000D02*
X115400000Y-109600000D01*
X117460000Y-108000000D02*
X117000000Y-108000000D01*
%TD*%
D23*
%TO.N,Earth*%
X135304321Y-97706654D02*
X134870279Y-97886440D01*
X134479651Y-98147450D01*
X134147450Y-98479651D01*
X133886440Y-98870279D01*
X133706654Y-99304321D01*
X133615000Y-99765098D01*
X133615000Y-100234902D01*
X133706654Y-100695679D01*
X133731032Y-100754533D01*
X133715001Y-100734999D01*
X133686003Y-100711202D01*
X133263803Y-100289002D01*
X133240001Y-100259999D01*
X133124276Y-100165026D01*
X132992247Y-100094454D01*
X132848986Y-100050997D01*
X132737333Y-100040000D01*
X132737322Y-100040000D01*
X132700000Y-100036324D01*
X132662678Y-100040000D01*
X127037323Y-100040000D01*
X127000000Y-100036324D01*
X126962677Y-100040000D01*
X126962667Y-100040000D01*
X126851014Y-100050997D01*
X126707753Y-100094454D01*
X126575724Y-100165026D01*
X126459999Y-100259999D01*
X126436201Y-100288997D01*
X125474858Y-101250341D01*
X125434974Y-101175724D01*
X125340001Y-101059999D01*
X125310998Y-101036197D01*
X124863804Y-100589003D01*
X124840001Y-100559999D01*
X124724276Y-100465026D01*
X124592247Y-100394454D01*
X124448986Y-100350997D01*
X124337333Y-100340000D01*
X124337322Y-100340000D01*
X124300000Y-100336324D01*
X124262678Y-100340000D01*
X122037322Y-100340000D01*
X121999999Y-100336324D01*
X121962676Y-100340000D01*
X121962667Y-100340000D01*
X121851014Y-100350997D01*
X121707753Y-100394454D01*
X121575724Y-100465026D01*
X121575722Y-100465027D01*
X121575723Y-100465027D01*
X121488996Y-100536201D01*
X121488992Y-100536205D01*
X121459999Y-100559999D01*
X121436205Y-100588993D01*
X120938997Y-101086202D01*
X120910000Y-101109999D01*
X120886202Y-101138997D01*
X120886201Y-101138998D01*
X120815026Y-101225724D01*
X120744454Y-101357754D01*
X120724364Y-101423985D01*
X120700998Y-101501014D01*
X120695188Y-101560000D01*
X120686324Y-101650000D01*
X120690001Y-101687332D01*
X120690001Y-102052225D01*
X120598987Y-102113038D01*
X120413038Y-102298987D01*
X120266939Y-102517641D01*
X120166304Y-102760595D01*
X120115000Y-103018514D01*
X120115000Y-103281486D01*
X120166304Y-103539405D01*
X120266939Y-103782359D01*
X120413038Y-104001013D01*
X120598987Y-104186962D01*
X120817641Y-104333061D01*
X121060595Y-104433696D01*
X121318514Y-104485000D01*
X121581486Y-104485000D01*
X121839405Y-104433696D01*
X122082359Y-104333061D01*
X122301013Y-104186962D01*
X122486962Y-104001013D01*
X122633061Y-103782359D01*
X122733696Y-103539405D01*
X122785000Y-103281486D01*
X122785000Y-103018514D01*
X122733696Y-102760595D01*
X122633061Y-102517641D01*
X122486962Y-102298987D01*
X122301013Y-102113038D01*
X122210000Y-102052225D01*
X122210000Y-101964802D01*
X122314802Y-101860000D01*
X123863210Y-101860000D01*
X123845506Y-101869463D01*
X123748815Y-101948815D01*
X123669463Y-102045506D01*
X123610498Y-102155820D01*
X123574188Y-102275518D01*
X123561928Y-102400000D01*
X123561928Y-103600000D01*
X123574188Y-103724482D01*
X123610498Y-103844180D01*
X123669463Y-103954494D01*
X123748815Y-104051185D01*
X123845506Y-104130537D01*
X123955820Y-104189502D01*
X124075518Y-104225812D01*
X124200000Y-104238072D01*
X125400000Y-104238072D01*
X125524482Y-104225812D01*
X125644180Y-104189502D01*
X125754494Y-104130537D01*
X125851185Y-104051185D01*
X125930537Y-103954494D01*
X125954858Y-103908994D01*
X126012736Y-103966872D01*
X126129842Y-103849766D01*
X126177148Y-104073348D01*
X126398516Y-104174237D01*
X126635313Y-104230000D01*
X126878438Y-104238495D01*
X127118549Y-104199395D01*
X127346418Y-104114202D01*
X127422852Y-104073348D01*
X127470159Y-103849764D01*
X126800000Y-103179605D01*
X126785858Y-103193748D01*
X126606253Y-103014143D01*
X126620395Y-103000000D01*
X126979605Y-103000000D01*
X127649764Y-103670159D01*
X127873348Y-103622852D01*
X127974237Y-103401484D01*
X128030000Y-103164687D01*
X128038495Y-102921562D01*
X128035491Y-102903110D01*
X129358524Y-102903110D01*
X129479845Y-103133000D01*
X130673000Y-103133000D01*
X130673000Y-101939186D01*
X130927000Y-101939186D01*
X130927000Y-103133000D01*
X132120155Y-103133000D01*
X132241476Y-102903110D01*
X132196825Y-102755901D01*
X132071641Y-102493080D01*
X131897588Y-102259731D01*
X131681355Y-102064822D01*
X131431252Y-101915843D01*
X131156891Y-101818519D01*
X130927000Y-101939186D01*
X130673000Y-101939186D01*
X130443109Y-101818519D01*
X130168748Y-101915843D01*
X129918645Y-102064822D01*
X129702412Y-102259731D01*
X129528359Y-102493080D01*
X129403175Y-102755901D01*
X129358524Y-102903110D01*
X128035491Y-102903110D01*
X127999395Y-102681451D01*
X127914202Y-102453582D01*
X127873348Y-102377148D01*
X127649764Y-102329841D01*
X126979605Y-103000000D01*
X126620395Y-103000000D01*
X126606253Y-102985858D01*
X126785858Y-102806253D01*
X126800000Y-102820395D01*
X127470159Y-102150236D01*
X127422852Y-101926652D01*
X127201484Y-101825763D01*
X127078095Y-101796706D01*
X127314802Y-101560000D01*
X132385199Y-101560000D01*
X132415000Y-101589802D01*
X132415001Y-104910197D01*
X132288072Y-105037127D01*
X132288072Y-104950000D01*
X132275812Y-104825518D01*
X132239502Y-104705820D01*
X132180537Y-104595506D01*
X132101185Y-104498815D01*
X132004494Y-104419463D01*
X131894180Y-104360498D01*
X131813534Y-104336034D01*
X131897588Y-104260269D01*
X132071641Y-104026920D01*
X132196825Y-103764099D01*
X132241476Y-103616890D01*
X132120155Y-103387000D01*
X130927000Y-103387000D01*
X130927000Y-103407000D01*
X130673000Y-103407000D01*
X130673000Y-103387000D01*
X129479845Y-103387000D01*
X129358524Y-103616890D01*
X129403175Y-103764099D01*
X129528359Y-104026920D01*
X129702412Y-104260269D01*
X129786466Y-104336034D01*
X129705820Y-104360498D01*
X129595506Y-104419463D01*
X129498815Y-104498815D01*
X129465015Y-104540000D01*
X128237333Y-104540000D01*
X128200000Y-104536323D01*
X128162667Y-104540000D01*
X128051014Y-104550997D01*
X127907753Y-104594454D01*
X127775724Y-104665026D01*
X127659999Y-104759999D01*
X127636201Y-104788997D01*
X126689002Y-105736196D01*
X126659999Y-105759999D01*
X126604871Y-105827174D01*
X126587653Y-105848153D01*
X126564974Y-105805723D01*
X126493799Y-105718997D01*
X126470001Y-105689999D01*
X126441004Y-105666202D01*
X125763803Y-104989002D01*
X125740001Y-104959999D01*
X125624276Y-104865026D01*
X125492247Y-104794454D01*
X125348986Y-104750997D01*
X125237333Y-104740000D01*
X125237322Y-104740000D01*
X125200000Y-104736324D01*
X125162678Y-104740000D01*
X120937322Y-104740000D01*
X120899999Y-104736324D01*
X120862676Y-104740000D01*
X120862667Y-104740000D01*
X120751014Y-104750997D01*
X120607753Y-104794454D01*
X120475724Y-104865026D01*
X120359999Y-104959999D01*
X120336201Y-104988997D01*
X119490000Y-105835199D01*
X119490000Y-105167323D01*
X119493676Y-105130000D01*
X119490000Y-105092677D01*
X119490000Y-105092667D01*
X119479003Y-104981014D01*
X119435546Y-104837753D01*
X119364974Y-104705724D01*
X119270001Y-104589999D01*
X119241002Y-104566200D01*
X118713803Y-104039002D01*
X118690001Y-104009999D01*
X118574276Y-103915026D01*
X118442247Y-103844454D01*
X118298986Y-103800997D01*
X118187333Y-103790000D01*
X118187322Y-103790000D01*
X118150000Y-103786324D01*
X118112678Y-103790000D01*
X117547955Y-103790000D01*
X117553061Y-103782359D01*
X117653696Y-103539405D01*
X117705000Y-103281486D01*
X117705000Y-103018514D01*
X117653696Y-102760595D01*
X117553061Y-102517641D01*
X117406962Y-102298987D01*
X117221013Y-102113038D01*
X117130000Y-102052225D01*
X117130000Y-102007325D01*
X117133676Y-101970000D01*
X117130000Y-101932675D01*
X117130000Y-101932667D01*
X117119003Y-101821014D01*
X117075546Y-101677753D01*
X117004974Y-101545724D01*
X116910001Y-101429999D01*
X116880998Y-101406197D01*
X116588804Y-101114003D01*
X116565001Y-101084999D01*
X116449276Y-100990026D01*
X116317247Y-100919454D01*
X116173986Y-100875997D01*
X116062333Y-100865000D01*
X116062322Y-100865000D01*
X116025000Y-100861324D01*
X115987678Y-100865000D01*
X109262322Y-100865000D01*
X109224999Y-100861324D01*
X109187676Y-100865000D01*
X109187667Y-100865000D01*
X109076014Y-100875997D01*
X108932753Y-100919454D01*
X108800723Y-100990026D01*
X108770261Y-101015026D01*
X108684999Y-101084999D01*
X108661201Y-101113997D01*
X106788998Y-102986201D01*
X106760000Y-103009999D01*
X106736202Y-103038997D01*
X106736201Y-103038998D01*
X106665026Y-103125724D01*
X106594454Y-103257754D01*
X106550998Y-103401015D01*
X106536324Y-103550000D01*
X106540001Y-103587332D01*
X106540000Y-114762678D01*
X106536324Y-114800000D01*
X106540000Y-114837322D01*
X106540000Y-114837332D01*
X106550997Y-114948985D01*
X106584672Y-115059999D01*
X106594454Y-115092246D01*
X106665026Y-115224276D01*
X106677931Y-115240000D01*
X106759999Y-115340001D01*
X106789003Y-115363804D01*
X107936201Y-116511003D01*
X107959999Y-116540001D01*
X108075724Y-116634974D01*
X108207753Y-116705546D01*
X108351014Y-116749003D01*
X108462667Y-116760000D01*
X108462676Y-116760000D01*
X108499999Y-116763676D01*
X108537322Y-116760000D01*
X123462678Y-116760000D01*
X123500000Y-116763676D01*
X123537322Y-116760000D01*
X123537333Y-116760000D01*
X123648986Y-116749003D01*
X123792247Y-116705546D01*
X123924276Y-116634974D01*
X124040001Y-116540001D01*
X124063804Y-116510998D01*
X125111003Y-115463799D01*
X125140001Y-115440001D01*
X125166332Y-115407917D01*
X125234974Y-115324277D01*
X125305546Y-115192247D01*
X125318669Y-115148985D01*
X125349003Y-115048986D01*
X125360000Y-114937333D01*
X125360000Y-114937323D01*
X125363676Y-114900000D01*
X125360000Y-114862677D01*
X125360000Y-114768043D01*
X125514759Y-114664637D01*
X125714637Y-114464759D01*
X125850000Y-114262173D01*
X125985363Y-114464759D01*
X126185241Y-114664637D01*
X126340001Y-114768044D01*
X126340001Y-114962668D01*
X126336324Y-115000000D01*
X126340001Y-115037333D01*
X126350998Y-115148986D01*
X126359109Y-115175724D01*
X126394454Y-115292246D01*
X126465026Y-115424276D01*
X126536201Y-115511002D01*
X126560000Y-115540001D01*
X126588998Y-115563799D01*
X127136200Y-116111002D01*
X127159999Y-116140001D01*
X127188997Y-116163799D01*
X127275723Y-116234974D01*
X127405461Y-116304321D01*
X127407753Y-116305546D01*
X127551014Y-116349003D01*
X127662667Y-116360000D01*
X127662676Y-116360000D01*
X127699999Y-116363676D01*
X127737322Y-116360000D01*
X130562678Y-116360000D01*
X130600000Y-116363676D01*
X130637322Y-116360000D01*
X130637333Y-116360000D01*
X130748986Y-116349003D01*
X130892247Y-116305546D01*
X131024276Y-116234974D01*
X131140001Y-116140001D01*
X131163804Y-116110997D01*
X131410998Y-115863803D01*
X131440001Y-115840001D01*
X131534974Y-115724276D01*
X131605546Y-115592247D01*
X131649003Y-115448986D01*
X131660000Y-115337333D01*
X131660000Y-115337324D01*
X131663676Y-115300001D01*
X131660000Y-115262678D01*
X131660000Y-114488072D01*
X131750000Y-114488072D01*
X131874482Y-114475812D01*
X131994180Y-114439502D01*
X132104494Y-114380537D01*
X132201185Y-114301185D01*
X132280537Y-114204494D01*
X132339502Y-114094180D01*
X132375812Y-113974482D01*
X132388072Y-113850000D01*
X132388072Y-112150000D01*
X132375812Y-112025518D01*
X132339502Y-111905820D01*
X132280537Y-111795506D01*
X132201185Y-111698815D01*
X132104494Y-111619463D01*
X131994180Y-111560498D01*
X131913534Y-111536034D01*
X131997588Y-111460269D01*
X132171641Y-111226920D01*
X132296825Y-110964099D01*
X132341476Y-110816890D01*
X132220155Y-110587000D01*
X131027000Y-110587000D01*
X131027000Y-110607000D01*
X130773000Y-110607000D01*
X130773000Y-110587000D01*
X129579845Y-110587000D01*
X129458524Y-110816890D01*
X129503175Y-110964099D01*
X129628359Y-111226920D01*
X129802412Y-111460269D01*
X129886466Y-111536034D01*
X129805820Y-111560498D01*
X129695506Y-111619463D01*
X129598815Y-111698815D01*
X129519463Y-111795506D01*
X129460498Y-111905820D01*
X129424188Y-112025518D01*
X129411928Y-112150000D01*
X129411928Y-113850000D01*
X129424188Y-113974482D01*
X129460498Y-114094180D01*
X129519463Y-114204494D01*
X129598815Y-114301185D01*
X129695506Y-114380537D01*
X129805820Y-114439502D01*
X129925518Y-114475812D01*
X130050000Y-114488072D01*
X130140000Y-114488072D01*
X130140000Y-114840000D01*
X128014802Y-114840000D01*
X127909662Y-114734860D01*
X128014759Y-114664637D01*
X128214637Y-114464759D01*
X128371680Y-114229727D01*
X128479853Y-113968574D01*
X128535000Y-113691335D01*
X128535000Y-113408665D01*
X128479853Y-113131426D01*
X128371680Y-112870273D01*
X128214637Y-112635241D01*
X128014759Y-112435363D01*
X127779727Y-112278320D01*
X127518574Y-112170147D01*
X127241335Y-112115000D01*
X126958665Y-112115000D01*
X126776114Y-112151312D01*
X125713804Y-111089002D01*
X125690001Y-111059999D01*
X125574276Y-110965026D01*
X125442247Y-110894454D01*
X125298986Y-110850997D01*
X125187333Y-110840000D01*
X125187322Y-110840000D01*
X125150000Y-110836324D01*
X125112678Y-110840000D01*
X123814802Y-110840000D01*
X123210000Y-110235199D01*
X123210000Y-110103110D01*
X129458524Y-110103110D01*
X129579845Y-110333000D01*
X130773000Y-110333000D01*
X130773000Y-109139186D01*
X131027000Y-109139186D01*
X131027000Y-110333000D01*
X132220155Y-110333000D01*
X132341476Y-110103110D01*
X132296825Y-109955901D01*
X132171641Y-109693080D01*
X131997588Y-109459731D01*
X131781355Y-109264822D01*
X131531252Y-109115843D01*
X131256891Y-109018519D01*
X131027000Y-109139186D01*
X130773000Y-109139186D01*
X130543109Y-109018519D01*
X130268748Y-109115843D01*
X130018645Y-109264822D01*
X129802412Y-109459731D01*
X129628359Y-109693080D01*
X129503175Y-109955901D01*
X129458524Y-110103110D01*
X123210000Y-110103110D01*
X123210000Y-109214801D01*
X123642549Y-108782253D01*
X123690829Y-108872578D01*
X123835788Y-109049212D01*
X124012421Y-109194171D01*
X124213940Y-109301885D01*
X124432600Y-109368215D01*
X124660000Y-109390612D01*
X124887399Y-109368215D01*
X125106059Y-109301885D01*
X125295000Y-109200894D01*
X125483940Y-109301885D01*
X125702600Y-109368215D01*
X125930000Y-109390612D01*
X126157399Y-109368215D01*
X126366098Y-109304907D01*
X126430820Y-109339502D01*
X126550518Y-109375812D01*
X126675000Y-109388072D01*
X127725000Y-109388072D01*
X127849482Y-109375812D01*
X127969180Y-109339502D01*
X128079494Y-109280537D01*
X128176185Y-109201185D01*
X128255537Y-109104494D01*
X128314502Y-108994180D01*
X128350812Y-108874482D01*
X128363072Y-108750000D01*
X128363072Y-107250000D01*
X128350812Y-107125518D01*
X128314502Y-107005820D01*
X128255537Y-106895506D01*
X128176185Y-106798815D01*
X128079494Y-106719463D01*
X127969180Y-106660498D01*
X127960000Y-106657713D01*
X127960000Y-106614801D01*
X128514802Y-106060000D01*
X129311928Y-106060000D01*
X129311928Y-106650000D01*
X129324188Y-106774482D01*
X129360498Y-106894180D01*
X129419463Y-107004494D01*
X129498815Y-107101185D01*
X129595506Y-107180537D01*
X129705820Y-107239502D01*
X129825518Y-107275812D01*
X129950000Y-107288072D01*
X131650000Y-107288072D01*
X131774482Y-107275812D01*
X131894180Y-107239502D01*
X132004494Y-107180537D01*
X132101185Y-107101185D01*
X132180537Y-107004494D01*
X132239502Y-106894180D01*
X132275812Y-106774482D01*
X132288072Y-106650000D01*
X132288072Y-106560000D01*
X132562678Y-106560000D01*
X132600000Y-106563676D01*
X132637322Y-106560000D01*
X132637333Y-106560000D01*
X132748986Y-106549003D01*
X132892247Y-106505546D01*
X133024276Y-106434974D01*
X133140001Y-106340001D01*
X133163803Y-106310998D01*
X133686002Y-105788800D01*
X133715001Y-105765001D01*
X133809974Y-105649276D01*
X133880546Y-105517247D01*
X133924003Y-105373986D01*
X133935000Y-105262333D01*
X133935000Y-105262325D01*
X133938676Y-105225000D01*
X133935000Y-105187675D01*
X133935000Y-101312322D01*
X133938676Y-101274999D01*
X133935000Y-101237676D01*
X133935000Y-101237667D01*
X133930925Y-101196298D01*
X134147450Y-101520349D01*
X134479651Y-101852550D01*
X134870279Y-102113560D01*
X135304321Y-102293346D01*
X135765098Y-102385000D01*
X136234902Y-102385000D01*
X136695679Y-102293346D01*
X137129721Y-102113560D01*
X137520349Y-101852550D01*
X137852550Y-101520349D01*
X138113560Y-101129721D01*
X138293346Y-100695679D01*
X138340001Y-100461129D01*
X138340000Y-116538867D01*
X138293346Y-116304321D01*
X138113560Y-115870279D01*
X137852550Y-115479651D01*
X137520349Y-115147450D01*
X137129721Y-114886440D01*
X136695679Y-114706654D01*
X136234902Y-114615000D01*
X135765098Y-114615000D01*
X135304321Y-114706654D01*
X134870279Y-114886440D01*
X134479651Y-115147450D01*
X134147450Y-115479651D01*
X133886440Y-115870279D01*
X133706654Y-116304321D01*
X133615000Y-116765098D01*
X133615000Y-117234902D01*
X133706654Y-117695679D01*
X133886440Y-118129721D01*
X134147450Y-118520349D01*
X134479651Y-118852550D01*
X134870279Y-119113560D01*
X135304321Y-119293346D01*
X135538867Y-119340000D01*
X105461133Y-119340000D01*
X105695679Y-119293346D01*
X106129721Y-119113560D01*
X106520349Y-118852550D01*
X106852550Y-118520349D01*
X107113560Y-118129721D01*
X107293346Y-117695679D01*
X107385000Y-117234902D01*
X107385000Y-116765098D01*
X107293346Y-116304321D01*
X107113560Y-115870279D01*
X106852550Y-115479651D01*
X106520349Y-115147450D01*
X106129721Y-114886440D01*
X105695679Y-114706654D01*
X105234902Y-114615000D01*
X104765098Y-114615000D01*
X104304321Y-114706654D01*
X103870279Y-114886440D01*
X103479651Y-115147450D01*
X103147450Y-115479651D01*
X102886440Y-115870279D01*
X102706654Y-116304321D01*
X102660000Y-116538867D01*
X102660000Y-100461133D01*
X102706654Y-100695679D01*
X102886440Y-101129721D01*
X103147450Y-101520349D01*
X103479651Y-101852550D01*
X103870279Y-102113560D01*
X104304321Y-102293346D01*
X104765098Y-102385000D01*
X105234902Y-102385000D01*
X105695679Y-102293346D01*
X106129721Y-102113560D01*
X106520349Y-101852550D01*
X106852550Y-101520349D01*
X107113560Y-101129721D01*
X107293346Y-100695679D01*
X107385000Y-100234902D01*
X107385000Y-99765098D01*
X107293346Y-99304321D01*
X107113560Y-98870279D01*
X106852550Y-98479651D01*
X106520349Y-98147450D01*
X106129721Y-97886440D01*
X105695679Y-97706654D01*
X105461133Y-97660000D01*
X135538867Y-97660000D01*
X135304321Y-97706654D01*
%TA.AperFunction,Conductor*%
D24*
G36*
X135304321Y-97706654D02*
G01*
X134870279Y-97886440D01*
X134479651Y-98147450D01*
X134147450Y-98479651D01*
X133886440Y-98870279D01*
X133706654Y-99304321D01*
X133615000Y-99765098D01*
X133615000Y-100234902D01*
X133706654Y-100695679D01*
X133731032Y-100754533D01*
X133715001Y-100734999D01*
X133686003Y-100711202D01*
X133263803Y-100289002D01*
X133240001Y-100259999D01*
X133124276Y-100165026D01*
X132992247Y-100094454D01*
X132848986Y-100050997D01*
X132737333Y-100040000D01*
X132737322Y-100040000D01*
X132700000Y-100036324D01*
X132662678Y-100040000D01*
X127037323Y-100040000D01*
X127000000Y-100036324D01*
X126962677Y-100040000D01*
X126962667Y-100040000D01*
X126851014Y-100050997D01*
X126707753Y-100094454D01*
X126575724Y-100165026D01*
X126459999Y-100259999D01*
X126436201Y-100288997D01*
X125474858Y-101250341D01*
X125434974Y-101175724D01*
X125340001Y-101059999D01*
X125310998Y-101036197D01*
X124863804Y-100589003D01*
X124840001Y-100559999D01*
X124724276Y-100465026D01*
X124592247Y-100394454D01*
X124448986Y-100350997D01*
X124337333Y-100340000D01*
X124337322Y-100340000D01*
X124300000Y-100336324D01*
X124262678Y-100340000D01*
X122037322Y-100340000D01*
X121999999Y-100336324D01*
X121962676Y-100340000D01*
X121962667Y-100340000D01*
X121851014Y-100350997D01*
X121707753Y-100394454D01*
X121575724Y-100465026D01*
X121575722Y-100465027D01*
X121575723Y-100465027D01*
X121488996Y-100536201D01*
X121488992Y-100536205D01*
X121459999Y-100559999D01*
X121436205Y-100588993D01*
X120938997Y-101086202D01*
X120910000Y-101109999D01*
X120886202Y-101138997D01*
X120886201Y-101138998D01*
X120815026Y-101225724D01*
X120744454Y-101357754D01*
X120724364Y-101423985D01*
X120700998Y-101501014D01*
X120695188Y-101560000D01*
X120686324Y-101650000D01*
X120690001Y-101687332D01*
X120690001Y-102052225D01*
X120598987Y-102113038D01*
X120413038Y-102298987D01*
X120266939Y-102517641D01*
X120166304Y-102760595D01*
X120115000Y-103018514D01*
X120115000Y-103281486D01*
X120166304Y-103539405D01*
X120266939Y-103782359D01*
X120413038Y-104001013D01*
X120598987Y-104186962D01*
X120817641Y-104333061D01*
X121060595Y-104433696D01*
X121318514Y-104485000D01*
X121581486Y-104485000D01*
X121839405Y-104433696D01*
X122082359Y-104333061D01*
X122301013Y-104186962D01*
X122486962Y-104001013D01*
X122633061Y-103782359D01*
X122733696Y-103539405D01*
X122785000Y-103281486D01*
X122785000Y-103018514D01*
X122733696Y-102760595D01*
X122633061Y-102517641D01*
X122486962Y-102298987D01*
X122301013Y-102113038D01*
X122210000Y-102052225D01*
X122210000Y-101964802D01*
X122314802Y-101860000D01*
X123863210Y-101860000D01*
X123845506Y-101869463D01*
X123748815Y-101948815D01*
X123669463Y-102045506D01*
X123610498Y-102155820D01*
X123574188Y-102275518D01*
X123561928Y-102400000D01*
X123561928Y-103600000D01*
X123574188Y-103724482D01*
X123610498Y-103844180D01*
X123669463Y-103954494D01*
X123748815Y-104051185D01*
X123845506Y-104130537D01*
X123955820Y-104189502D01*
X124075518Y-104225812D01*
X124200000Y-104238072D01*
X125400000Y-104238072D01*
X125524482Y-104225812D01*
X125644180Y-104189502D01*
X125754494Y-104130537D01*
X125851185Y-104051185D01*
X125930537Y-103954494D01*
X125954858Y-103908994D01*
X126012736Y-103966872D01*
X126129842Y-103849766D01*
X126177148Y-104073348D01*
X126398516Y-104174237D01*
X126635313Y-104230000D01*
X126878438Y-104238495D01*
X127118549Y-104199395D01*
X127346418Y-104114202D01*
X127422852Y-104073348D01*
X127470159Y-103849764D01*
X126800000Y-103179605D01*
X126785858Y-103193748D01*
X126606253Y-103014143D01*
X126620395Y-103000000D01*
X126979605Y-103000000D01*
X127649764Y-103670159D01*
X127873348Y-103622852D01*
X127974237Y-103401484D01*
X128030000Y-103164687D01*
X128038495Y-102921562D01*
X128035491Y-102903110D01*
X129358524Y-102903110D01*
X129479845Y-103133000D01*
X130673000Y-103133000D01*
X130673000Y-101939186D01*
X130927000Y-101939186D01*
X130927000Y-103133000D01*
X132120155Y-103133000D01*
X132241476Y-102903110D01*
X132196825Y-102755901D01*
X132071641Y-102493080D01*
X131897588Y-102259731D01*
X131681355Y-102064822D01*
X131431252Y-101915843D01*
X131156891Y-101818519D01*
X130927000Y-101939186D01*
X130673000Y-101939186D01*
X130443109Y-101818519D01*
X130168748Y-101915843D01*
X129918645Y-102064822D01*
X129702412Y-102259731D01*
X129528359Y-102493080D01*
X129403175Y-102755901D01*
X129358524Y-102903110D01*
X128035491Y-102903110D01*
X127999395Y-102681451D01*
X127914202Y-102453582D01*
X127873348Y-102377148D01*
X127649764Y-102329841D01*
X126979605Y-103000000D01*
X126620395Y-103000000D01*
X126606253Y-102985858D01*
X126785858Y-102806253D01*
X126800000Y-102820395D01*
X127470159Y-102150236D01*
X127422852Y-101926652D01*
X127201484Y-101825763D01*
X127078095Y-101796706D01*
X127314802Y-101560000D01*
X132385199Y-101560000D01*
X132415000Y-101589802D01*
X132415001Y-104910197D01*
X132288072Y-105037127D01*
X132288072Y-104950000D01*
X132275812Y-104825518D01*
X132239502Y-104705820D01*
X132180537Y-104595506D01*
X132101185Y-104498815D01*
X132004494Y-104419463D01*
X131894180Y-104360498D01*
X131813534Y-104336034D01*
X131897588Y-104260269D01*
X132071641Y-104026920D01*
X132196825Y-103764099D01*
X132241476Y-103616890D01*
X132120155Y-103387000D01*
X130927000Y-103387000D01*
X130927000Y-103407000D01*
X130673000Y-103407000D01*
X130673000Y-103387000D01*
X129479845Y-103387000D01*
X129358524Y-103616890D01*
X129403175Y-103764099D01*
X129528359Y-104026920D01*
X129702412Y-104260269D01*
X129786466Y-104336034D01*
X129705820Y-104360498D01*
X129595506Y-104419463D01*
X129498815Y-104498815D01*
X129465015Y-104540000D01*
X128237333Y-104540000D01*
X128200000Y-104536323D01*
X128162667Y-104540000D01*
X128051014Y-104550997D01*
X127907753Y-104594454D01*
X127775724Y-104665026D01*
X127659999Y-104759999D01*
X127636201Y-104788997D01*
X126689002Y-105736196D01*
X126659999Y-105759999D01*
X126604871Y-105827174D01*
X126587653Y-105848153D01*
X126564974Y-105805723D01*
X126493799Y-105718997D01*
X126470001Y-105689999D01*
X126441004Y-105666202D01*
X125763803Y-104989002D01*
X125740001Y-104959999D01*
X125624276Y-104865026D01*
X125492247Y-104794454D01*
X125348986Y-104750997D01*
X125237333Y-104740000D01*
X125237322Y-104740000D01*
X125200000Y-104736324D01*
X125162678Y-104740000D01*
X120937322Y-104740000D01*
X120899999Y-104736324D01*
X120862676Y-104740000D01*
X120862667Y-104740000D01*
X120751014Y-104750997D01*
X120607753Y-104794454D01*
X120475724Y-104865026D01*
X120359999Y-104959999D01*
X120336201Y-104988997D01*
X119490000Y-105835199D01*
X119490000Y-105167323D01*
X119493676Y-105130000D01*
X119490000Y-105092677D01*
X119490000Y-105092667D01*
X119479003Y-104981014D01*
X119435546Y-104837753D01*
X119364974Y-104705724D01*
X119270001Y-104589999D01*
X119241002Y-104566200D01*
X118713803Y-104039002D01*
X118690001Y-104009999D01*
X118574276Y-103915026D01*
X118442247Y-103844454D01*
X118298986Y-103800997D01*
X118187333Y-103790000D01*
X118187322Y-103790000D01*
X118150000Y-103786324D01*
X118112678Y-103790000D01*
X117547955Y-103790000D01*
X117553061Y-103782359D01*
X117653696Y-103539405D01*
X117705000Y-103281486D01*
X117705000Y-103018514D01*
X117653696Y-102760595D01*
X117553061Y-102517641D01*
X117406962Y-102298987D01*
X117221013Y-102113038D01*
X117130000Y-102052225D01*
X117130000Y-102007325D01*
X117133676Y-101970000D01*
X117130000Y-101932675D01*
X117130000Y-101932667D01*
X117119003Y-101821014D01*
X117075546Y-101677753D01*
X117004974Y-101545724D01*
X116910001Y-101429999D01*
X116880998Y-101406197D01*
X116588804Y-101114003D01*
X116565001Y-101084999D01*
X116449276Y-100990026D01*
X116317247Y-100919454D01*
X116173986Y-100875997D01*
X116062333Y-100865000D01*
X116062322Y-100865000D01*
X116025000Y-100861324D01*
X115987678Y-100865000D01*
X109262322Y-100865000D01*
X109224999Y-100861324D01*
X109187676Y-100865000D01*
X109187667Y-100865000D01*
X109076014Y-100875997D01*
X108932753Y-100919454D01*
X108800723Y-100990026D01*
X108770261Y-101015026D01*
X108684999Y-101084999D01*
X108661201Y-101113997D01*
X106788998Y-102986201D01*
X106760000Y-103009999D01*
X106736202Y-103038997D01*
X106736201Y-103038998D01*
X106665026Y-103125724D01*
X106594454Y-103257754D01*
X106550998Y-103401015D01*
X106536324Y-103550000D01*
X106540001Y-103587332D01*
X106540000Y-114762678D01*
X106536324Y-114800000D01*
X106540000Y-114837322D01*
X106540000Y-114837332D01*
X106550997Y-114948985D01*
X106584672Y-115059999D01*
X106594454Y-115092246D01*
X106665026Y-115224276D01*
X106677931Y-115240000D01*
X106759999Y-115340001D01*
X106789003Y-115363804D01*
X107936201Y-116511003D01*
X107959999Y-116540001D01*
X108075724Y-116634974D01*
X108207753Y-116705546D01*
X108351014Y-116749003D01*
X108462667Y-116760000D01*
X108462676Y-116760000D01*
X108499999Y-116763676D01*
X108537322Y-116760000D01*
X123462678Y-116760000D01*
X123500000Y-116763676D01*
X123537322Y-116760000D01*
X123537333Y-116760000D01*
X123648986Y-116749003D01*
X123792247Y-116705546D01*
X123924276Y-116634974D01*
X124040001Y-116540001D01*
X124063804Y-116510998D01*
X125111003Y-115463799D01*
X125140001Y-115440001D01*
X125166332Y-115407917D01*
X125234974Y-115324277D01*
X125305546Y-115192247D01*
X125318669Y-115148985D01*
X125349003Y-115048986D01*
X125360000Y-114937333D01*
X125360000Y-114937323D01*
X125363676Y-114900000D01*
X125360000Y-114862677D01*
X125360000Y-114768043D01*
X125514759Y-114664637D01*
X125714637Y-114464759D01*
X125850000Y-114262173D01*
X125985363Y-114464759D01*
X126185241Y-114664637D01*
X126340001Y-114768044D01*
X126340001Y-114962668D01*
X126336324Y-115000000D01*
X126340001Y-115037333D01*
X126350998Y-115148986D01*
X126359109Y-115175724D01*
X126394454Y-115292246D01*
X126465026Y-115424276D01*
X126536201Y-115511002D01*
X126560000Y-115540001D01*
X126588998Y-115563799D01*
X127136200Y-116111002D01*
X127159999Y-116140001D01*
X127188997Y-116163799D01*
X127275723Y-116234974D01*
X127405461Y-116304321D01*
X127407753Y-116305546D01*
X127551014Y-116349003D01*
X127662667Y-116360000D01*
X127662676Y-116360000D01*
X127699999Y-116363676D01*
X127737322Y-116360000D01*
X130562678Y-116360000D01*
X130600000Y-116363676D01*
X130637322Y-116360000D01*
X130637333Y-116360000D01*
X130748986Y-116349003D01*
X130892247Y-116305546D01*
X131024276Y-116234974D01*
X131140001Y-116140001D01*
X131163804Y-116110997D01*
X131410998Y-115863803D01*
X131440001Y-115840001D01*
X131534974Y-115724276D01*
X131605546Y-115592247D01*
X131649003Y-115448986D01*
X131660000Y-115337333D01*
X131660000Y-115337324D01*
X131663676Y-115300001D01*
X131660000Y-115262678D01*
X131660000Y-114488072D01*
X131750000Y-114488072D01*
X131874482Y-114475812D01*
X131994180Y-114439502D01*
X132104494Y-114380537D01*
X132201185Y-114301185D01*
X132280537Y-114204494D01*
X132339502Y-114094180D01*
X132375812Y-113974482D01*
X132388072Y-113850000D01*
X132388072Y-112150000D01*
X132375812Y-112025518D01*
X132339502Y-111905820D01*
X132280537Y-111795506D01*
X132201185Y-111698815D01*
X132104494Y-111619463D01*
X131994180Y-111560498D01*
X131913534Y-111536034D01*
X131997588Y-111460269D01*
X132171641Y-111226920D01*
X132296825Y-110964099D01*
X132341476Y-110816890D01*
X132220155Y-110587000D01*
X131027000Y-110587000D01*
X131027000Y-110607000D01*
X130773000Y-110607000D01*
X130773000Y-110587000D01*
X129579845Y-110587000D01*
X129458524Y-110816890D01*
X129503175Y-110964099D01*
X129628359Y-111226920D01*
X129802412Y-111460269D01*
X129886466Y-111536034D01*
X129805820Y-111560498D01*
X129695506Y-111619463D01*
X129598815Y-111698815D01*
X129519463Y-111795506D01*
X129460498Y-111905820D01*
X129424188Y-112025518D01*
X129411928Y-112150000D01*
X129411928Y-113850000D01*
X129424188Y-113974482D01*
X129460498Y-114094180D01*
X129519463Y-114204494D01*
X129598815Y-114301185D01*
X129695506Y-114380537D01*
X129805820Y-114439502D01*
X129925518Y-114475812D01*
X130050000Y-114488072D01*
X130140000Y-114488072D01*
X130140000Y-114840000D01*
X128014802Y-114840000D01*
X127909662Y-114734860D01*
X128014759Y-114664637D01*
X128214637Y-114464759D01*
X128371680Y-114229727D01*
X128479853Y-113968574D01*
X128535000Y-113691335D01*
X128535000Y-113408665D01*
X128479853Y-113131426D01*
X128371680Y-112870273D01*
X128214637Y-112635241D01*
X128014759Y-112435363D01*
X127779727Y-112278320D01*
X127518574Y-112170147D01*
X127241335Y-112115000D01*
X126958665Y-112115000D01*
X126776114Y-112151312D01*
X125713804Y-111089002D01*
X125690001Y-111059999D01*
X125574276Y-110965026D01*
X125442247Y-110894454D01*
X125298986Y-110850997D01*
X125187333Y-110840000D01*
X125187322Y-110840000D01*
X125150000Y-110836324D01*
X125112678Y-110840000D01*
X123814802Y-110840000D01*
X123210000Y-110235199D01*
X123210000Y-110103110D01*
X129458524Y-110103110D01*
X129579845Y-110333000D01*
X130773000Y-110333000D01*
X130773000Y-109139186D01*
X131027000Y-109139186D01*
X131027000Y-110333000D01*
X132220155Y-110333000D01*
X132341476Y-110103110D01*
X132296825Y-109955901D01*
X132171641Y-109693080D01*
X131997588Y-109459731D01*
X131781355Y-109264822D01*
X131531252Y-109115843D01*
X131256891Y-109018519D01*
X131027000Y-109139186D01*
X130773000Y-109139186D01*
X130543109Y-109018519D01*
X130268748Y-109115843D01*
X130018645Y-109264822D01*
X129802412Y-109459731D01*
X129628359Y-109693080D01*
X129503175Y-109955901D01*
X129458524Y-110103110D01*
X123210000Y-110103110D01*
X123210000Y-109214801D01*
X123642549Y-108782253D01*
X123690829Y-108872578D01*
X123835788Y-109049212D01*
X124012421Y-109194171D01*
X124213940Y-109301885D01*
X124432600Y-109368215D01*
X124660000Y-109390612D01*
X124887399Y-109368215D01*
X125106059Y-109301885D01*
X125295000Y-109200894D01*
X125483940Y-109301885D01*
X125702600Y-109368215D01*
X125930000Y-109390612D01*
X126157399Y-109368215D01*
X126366098Y-109304907D01*
X126430820Y-109339502D01*
X126550518Y-109375812D01*
X126675000Y-109388072D01*
X127725000Y-109388072D01*
X127849482Y-109375812D01*
X127969180Y-109339502D01*
X128079494Y-109280537D01*
X128176185Y-109201185D01*
X128255537Y-109104494D01*
X128314502Y-108994180D01*
X128350812Y-108874482D01*
X128363072Y-108750000D01*
X128363072Y-107250000D01*
X128350812Y-107125518D01*
X128314502Y-107005820D01*
X128255537Y-106895506D01*
X128176185Y-106798815D01*
X128079494Y-106719463D01*
X127969180Y-106660498D01*
X127960000Y-106657713D01*
X127960000Y-106614801D01*
X128514802Y-106060000D01*
X129311928Y-106060000D01*
X129311928Y-106650000D01*
X129324188Y-106774482D01*
X129360498Y-106894180D01*
X129419463Y-107004494D01*
X129498815Y-107101185D01*
X129595506Y-107180537D01*
X129705820Y-107239502D01*
X129825518Y-107275812D01*
X129950000Y-107288072D01*
X131650000Y-107288072D01*
X131774482Y-107275812D01*
X131894180Y-107239502D01*
X132004494Y-107180537D01*
X132101185Y-107101185D01*
X132180537Y-107004494D01*
X132239502Y-106894180D01*
X132275812Y-106774482D01*
X132288072Y-106650000D01*
X132288072Y-106560000D01*
X132562678Y-106560000D01*
X132600000Y-106563676D01*
X132637322Y-106560000D01*
X132637333Y-106560000D01*
X132748986Y-106549003D01*
X132892247Y-106505546D01*
X133024276Y-106434974D01*
X133140001Y-106340001D01*
X133163803Y-106310998D01*
X133686002Y-105788800D01*
X133715001Y-105765001D01*
X133809974Y-105649276D01*
X133880546Y-105517247D01*
X133924003Y-105373986D01*
X133935000Y-105262333D01*
X133935000Y-105262325D01*
X133938676Y-105225000D01*
X133935000Y-105187675D01*
X133935000Y-101312322D01*
X133938676Y-101274999D01*
X133935000Y-101237676D01*
X133935000Y-101237667D01*
X133930925Y-101196298D01*
X134147450Y-101520349D01*
X134479651Y-101852550D01*
X134870279Y-102113560D01*
X135304321Y-102293346D01*
X135765098Y-102385000D01*
X136234902Y-102385000D01*
X136695679Y-102293346D01*
X137129721Y-102113560D01*
X137520349Y-101852550D01*
X137852550Y-101520349D01*
X138113560Y-101129721D01*
X138293346Y-100695679D01*
X138340001Y-100461129D01*
X138340000Y-116538867D01*
X138293346Y-116304321D01*
X138113560Y-115870279D01*
X137852550Y-115479651D01*
X137520349Y-115147450D01*
X137129721Y-114886440D01*
X136695679Y-114706654D01*
X136234902Y-114615000D01*
X135765098Y-114615000D01*
X135304321Y-114706654D01*
X134870279Y-114886440D01*
X134479651Y-115147450D01*
X134147450Y-115479651D01*
X133886440Y-115870279D01*
X133706654Y-116304321D01*
X133615000Y-116765098D01*
X133615000Y-117234902D01*
X133706654Y-117695679D01*
X133886440Y-118129721D01*
X134147450Y-118520349D01*
X134479651Y-118852550D01*
X134870279Y-119113560D01*
X135304321Y-119293346D01*
X135538867Y-119340000D01*
X105461133Y-119340000D01*
X105695679Y-119293346D01*
X106129721Y-119113560D01*
X106520349Y-118852550D01*
X106852550Y-118520349D01*
X107113560Y-118129721D01*
X107293346Y-117695679D01*
X107385000Y-117234902D01*
X107385000Y-116765098D01*
X107293346Y-116304321D01*
X107113560Y-115870279D01*
X106852550Y-115479651D01*
X106520349Y-115147450D01*
X106129721Y-114886440D01*
X105695679Y-114706654D01*
X105234902Y-114615000D01*
X104765098Y-114615000D01*
X104304321Y-114706654D01*
X103870279Y-114886440D01*
X103479651Y-115147450D01*
X103147450Y-115479651D01*
X102886440Y-115870279D01*
X102706654Y-116304321D01*
X102660000Y-116538867D01*
X102660000Y-100461133D01*
X102706654Y-100695679D01*
X102886440Y-101129721D01*
X103147450Y-101520349D01*
X103479651Y-101852550D01*
X103870279Y-102113560D01*
X104304321Y-102293346D01*
X104765098Y-102385000D01*
X105234902Y-102385000D01*
X105695679Y-102293346D01*
X106129721Y-102113560D01*
X106520349Y-101852550D01*
X106852550Y-101520349D01*
X107113560Y-101129721D01*
X107293346Y-100695679D01*
X107385000Y-100234902D01*
X107385000Y-99765098D01*
X107293346Y-99304321D01*
X107113560Y-98870279D01*
X106852550Y-98479651D01*
X106520349Y-98147450D01*
X106129721Y-97886440D01*
X105695679Y-97706654D01*
X105461133Y-97660000D01*
X135538867Y-97660000D01*
X135304321Y-97706654D01*
G37*
%TD.AperFunction*%
D23*
X112890000Y-103864802D02*
X112890000Y-104043293D01*
X112767751Y-104124977D01*
X112574977Y-104317751D01*
X112423515Y-104544430D01*
X112319186Y-104796302D01*
X112266000Y-105063688D01*
X112266000Y-105336312D01*
X112319186Y-105603698D01*
X112423515Y-105855570D01*
X112574977Y-106082249D01*
X112767751Y-106275023D01*
X112994430Y-106426485D01*
X113246302Y-106530814D01*
X113513688Y-106584000D01*
X113786312Y-106584000D01*
X114053698Y-106530814D01*
X114305570Y-106426485D01*
X114532249Y-106275023D01*
X114725023Y-106082249D01*
X114806707Y-105960000D01*
X115562678Y-105960000D01*
X115600000Y-105963676D01*
X115637322Y-105960000D01*
X115637333Y-105960000D01*
X115748986Y-105949003D01*
X115892247Y-105905546D01*
X116024276Y-105834974D01*
X116140001Y-105740001D01*
X116163803Y-105710998D01*
X116564802Y-105310000D01*
X117835199Y-105310000D01*
X117970001Y-105444802D01*
X117970000Y-106732292D01*
X117906060Y-106698115D01*
X117687400Y-106631785D01*
X117460000Y-106609388D01*
X117232601Y-106631785D01*
X117013941Y-106698115D01*
X116812422Y-106805829D01*
X116635789Y-106950788D01*
X116490830Y-107127421D01*
X116383115Y-107328940D01*
X116316785Y-107547600D01*
X116310141Y-107615057D01*
X114889003Y-109036196D01*
X114859999Y-109059999D01*
X114804871Y-109127174D01*
X114765026Y-109175724D01*
X114756195Y-109192246D01*
X114694454Y-109307754D01*
X114650997Y-109451015D01*
X114640000Y-109562668D01*
X114640000Y-109562678D01*
X114636324Y-109600000D01*
X114640000Y-109637323D01*
X114640000Y-110932563D01*
X114606279Y-110923326D01*
X113829605Y-111700000D01*
X114606279Y-112476674D01*
X114642888Y-112466646D01*
X114650998Y-112548985D01*
X114694454Y-112692246D01*
X114765026Y-112824276D01*
X114827324Y-112900185D01*
X114860000Y-112940001D01*
X114888998Y-112963799D01*
X115286355Y-113361156D01*
X115265000Y-113468514D01*
X115265000Y-113731486D01*
X115316304Y-113989405D01*
X115416939Y-114232359D01*
X115563038Y-114451013D01*
X115748987Y-114636962D01*
X115967641Y-114783061D01*
X116210595Y-114883696D01*
X116468514Y-114935000D01*
X116731486Y-114935000D01*
X116989405Y-114883696D01*
X117232359Y-114783061D01*
X117451013Y-114636962D01*
X117636962Y-114451013D01*
X117783061Y-114232359D01*
X117883696Y-113989405D01*
X117894850Y-113933329D01*
X120387284Y-113933329D01*
X120419953Y-114041044D01*
X120530208Y-114278392D01*
X120684649Y-114489670D01*
X120877340Y-114666759D01*
X121100877Y-114802853D01*
X121346670Y-114892722D01*
X121553000Y-114770201D01*
X121553000Y-113727000D01*
X121807000Y-113727000D01*
X121807000Y-114770201D01*
X122013330Y-114892722D01*
X122259123Y-114802853D01*
X122482660Y-114666759D01*
X122675351Y-114489670D01*
X122829792Y-114278392D01*
X122940047Y-114041044D01*
X122972716Y-113933329D01*
X122849374Y-113727000D01*
X121807000Y-113727000D01*
X121553000Y-113727000D01*
X120510626Y-113727000D01*
X120387284Y-113933329D01*
X117894850Y-113933329D01*
X117935000Y-113731486D01*
X117935000Y-113468514D01*
X117894851Y-113266671D01*
X120387284Y-113266671D01*
X120510626Y-113473000D01*
X121553000Y-113473000D01*
X121553000Y-112429799D01*
X121807000Y-112429799D01*
X121807000Y-113473000D01*
X122849374Y-113473000D01*
X122972716Y-113266671D01*
X122940047Y-113158956D01*
X122829792Y-112921608D01*
X122675351Y-112710330D01*
X122482660Y-112533241D01*
X122259123Y-112397147D01*
X122013330Y-112307278D01*
X121807000Y-112429799D01*
X121553000Y-112429799D01*
X121346670Y-112307278D01*
X121100877Y-112397147D01*
X120877340Y-112533241D01*
X120684649Y-112710330D01*
X120530208Y-112921608D01*
X120419953Y-113158956D01*
X120387284Y-113266671D01*
X117894851Y-113266671D01*
X117883696Y-113210595D01*
X117783061Y-112967641D01*
X117636962Y-112748987D01*
X117451013Y-112563038D01*
X117232359Y-112416939D01*
X116989405Y-112316304D01*
X116731486Y-112265000D01*
X116468514Y-112265000D01*
X116361156Y-112286355D01*
X116160000Y-112085199D01*
X116160000Y-109914801D01*
X116856871Y-109217930D01*
X117013940Y-109301885D01*
X117232600Y-109368215D01*
X117460000Y-109390612D01*
X117687399Y-109368215D01*
X117906059Y-109301885D01*
X118095000Y-109200894D01*
X118283940Y-109301885D01*
X118502600Y-109368215D01*
X118730000Y-109390612D01*
X118957399Y-109368215D01*
X119166098Y-109304907D01*
X119230820Y-109339502D01*
X119350518Y-109375812D01*
X119475000Y-109388072D01*
X120525000Y-109388072D01*
X120649482Y-109375812D01*
X120769180Y-109339502D01*
X120879494Y-109280537D01*
X120976185Y-109201185D01*
X121055537Y-109104494D01*
X121114502Y-108994180D01*
X121150812Y-108874482D01*
X121163072Y-108750000D01*
X121163072Y-107250000D01*
X121150812Y-107125518D01*
X121114502Y-107005820D01*
X121055537Y-106895506D01*
X120976185Y-106798815D01*
X120879494Y-106719463D01*
X120798585Y-106676216D01*
X121214802Y-106260000D01*
X124885199Y-106260000D01*
X125170000Y-106544802D01*
X125170000Y-106732292D01*
X125106060Y-106698115D01*
X124887400Y-106631785D01*
X124660000Y-106609388D01*
X124432601Y-106631785D01*
X124213941Y-106698115D01*
X124012422Y-106805829D01*
X123835789Y-106950788D01*
X123690830Y-107127421D01*
X123630655Y-107240000D01*
X123387322Y-107240000D01*
X123349999Y-107236324D01*
X123312676Y-107240000D01*
X123312667Y-107240000D01*
X123201014Y-107250997D01*
X123057753Y-107294454D01*
X122925724Y-107365026D01*
X122809999Y-107459999D01*
X122786201Y-107488997D01*
X121939002Y-108336197D01*
X121909999Y-108359999D01*
X121857250Y-108424275D01*
X121815026Y-108475724D01*
X121796169Y-108511003D01*
X121744454Y-108607754D01*
X121700997Y-108751015D01*
X121690000Y-108862668D01*
X121690000Y-108862678D01*
X121686324Y-108900000D01*
X121690000Y-108937323D01*
X121690001Y-110512668D01*
X121686324Y-110550000D01*
X121690001Y-110587333D01*
X121700998Y-110698986D01*
X121714180Y-110742442D01*
X121744454Y-110842246D01*
X121815026Y-110974276D01*
X121885378Y-111059999D01*
X121910000Y-111090001D01*
X121938998Y-111113799D01*
X122936200Y-112111002D01*
X122959999Y-112140001D01*
X123075724Y-112234974D01*
X123207753Y-112305546D01*
X123351014Y-112349003D01*
X123462667Y-112360000D01*
X123462676Y-112360000D01*
X123499999Y-112363676D01*
X123537322Y-112360000D01*
X123798030Y-112360000D01*
X123685241Y-112435363D01*
X123485363Y-112635241D01*
X123328320Y-112870273D01*
X123220147Y-113131426D01*
X123165000Y-113408665D01*
X123165000Y-113691335D01*
X123220147Y-113968574D01*
X123328320Y-114229727D01*
X123485363Y-114464759D01*
X123685241Y-114664637D01*
X123730392Y-114694806D01*
X123185199Y-115240000D01*
X108814802Y-115240000D01*
X108060000Y-114485199D01*
X108060000Y-112986750D01*
X108156820Y-113038502D01*
X108276518Y-113074812D01*
X108401000Y-113087072D01*
X108864250Y-113084000D01*
X109023000Y-112925250D01*
X109023000Y-111827000D01*
X109277000Y-111827000D01*
X109277000Y-112925250D01*
X109435750Y-113084000D01*
X109899000Y-113087072D01*
X110023482Y-113074812D01*
X110143180Y-113038502D01*
X110253494Y-112979537D01*
X110350185Y-112900185D01*
X110429537Y-112803494D01*
X110488502Y-112693180D01*
X110499695Y-112656279D01*
X112873326Y-112656279D01*
X112938729Y-112895045D01*
X113185538Y-113010845D01*
X113450195Y-113076270D01*
X113722531Y-113088805D01*
X113992081Y-113047970D01*
X114248484Y-112955332D01*
X114361271Y-112895045D01*
X114426674Y-112656279D01*
X113650000Y-111879605D01*
X112873326Y-112656279D01*
X110499695Y-112656279D01*
X110524812Y-112573482D01*
X110537072Y-112449000D01*
X110534000Y-111985750D01*
X110375250Y-111827000D01*
X109277000Y-111827000D01*
X109023000Y-111827000D01*
X109003000Y-111827000D01*
X109003000Y-111772531D01*
X112261195Y-111772531D01*
X112302030Y-112042081D01*
X112394668Y-112298484D01*
X112454955Y-112411271D01*
X112693721Y-112476674D01*
X113470395Y-111700000D01*
X112693721Y-110923326D01*
X112454955Y-110988729D01*
X112339155Y-111235538D01*
X112273730Y-111500195D01*
X112261195Y-111772531D01*
X109003000Y-111772531D01*
X109003000Y-111573000D01*
X109023000Y-111573000D01*
X109023000Y-110474750D01*
X109277000Y-110474750D01*
X109277000Y-111573000D01*
X110375250Y-111573000D01*
X110534000Y-111414250D01*
X110537072Y-110951000D01*
X110524812Y-110826518D01*
X110499696Y-110743721D01*
X112873326Y-110743721D01*
X113650000Y-111520395D01*
X114426674Y-110743721D01*
X114361271Y-110504955D01*
X114114462Y-110389155D01*
X113849805Y-110323730D01*
X113577469Y-110311195D01*
X113307919Y-110352030D01*
X113051516Y-110444668D01*
X112938729Y-110504955D01*
X112873326Y-110743721D01*
X110499696Y-110743721D01*
X110488502Y-110706820D01*
X110429537Y-110596506D01*
X110350185Y-110499815D01*
X110253494Y-110420463D01*
X110143180Y-110361498D01*
X110023482Y-110325188D01*
X109899000Y-110312928D01*
X109435750Y-110316000D01*
X109277000Y-110474750D01*
X109023000Y-110474750D01*
X108864250Y-110316000D01*
X108401000Y-110312928D01*
X108276518Y-110325188D01*
X108156820Y-110361498D01*
X108060000Y-110413250D01*
X108060000Y-106059834D01*
X108074977Y-106082249D01*
X108267751Y-106275023D01*
X108494430Y-106426485D01*
X108746302Y-106530814D01*
X109013688Y-106584000D01*
X109286312Y-106584000D01*
X109553698Y-106530814D01*
X109805570Y-106426485D01*
X110032249Y-106275023D01*
X110225023Y-106082249D01*
X110376485Y-105855570D01*
X110480814Y-105603698D01*
X110534000Y-105336312D01*
X110534000Y-105063688D01*
X110480814Y-104796302D01*
X110376485Y-104544430D01*
X110225023Y-104317751D01*
X110032249Y-104124977D01*
X109910000Y-104043293D01*
X109910000Y-103864801D01*
X110114802Y-103660000D01*
X112685199Y-103660000D01*
X112890000Y-103864802D01*
%TA.AperFunction,Conductor*%
D24*
G36*
X112890000Y-103864802D02*
G01*
X112890000Y-104043293D01*
X112767751Y-104124977D01*
X112574977Y-104317751D01*
X112423515Y-104544430D01*
X112319186Y-104796302D01*
X112266000Y-105063688D01*
X112266000Y-105336312D01*
X112319186Y-105603698D01*
X112423515Y-105855570D01*
X112574977Y-106082249D01*
X112767751Y-106275023D01*
X112994430Y-106426485D01*
X113246302Y-106530814D01*
X113513688Y-106584000D01*
X113786312Y-106584000D01*
X114053698Y-106530814D01*
X114305570Y-106426485D01*
X114532249Y-106275023D01*
X114725023Y-106082249D01*
X114806707Y-105960000D01*
X115562678Y-105960000D01*
X115600000Y-105963676D01*
X115637322Y-105960000D01*
X115637333Y-105960000D01*
X115748986Y-105949003D01*
X115892247Y-105905546D01*
X116024276Y-105834974D01*
X116140001Y-105740001D01*
X116163803Y-105710998D01*
X116564802Y-105310000D01*
X117835199Y-105310000D01*
X117970001Y-105444802D01*
X117970000Y-106732292D01*
X117906060Y-106698115D01*
X117687400Y-106631785D01*
X117460000Y-106609388D01*
X117232601Y-106631785D01*
X117013941Y-106698115D01*
X116812422Y-106805829D01*
X116635789Y-106950788D01*
X116490830Y-107127421D01*
X116383115Y-107328940D01*
X116316785Y-107547600D01*
X116310141Y-107615057D01*
X114889003Y-109036196D01*
X114859999Y-109059999D01*
X114804871Y-109127174D01*
X114765026Y-109175724D01*
X114756195Y-109192246D01*
X114694454Y-109307754D01*
X114650997Y-109451015D01*
X114640000Y-109562668D01*
X114640000Y-109562678D01*
X114636324Y-109600000D01*
X114640000Y-109637323D01*
X114640000Y-110932563D01*
X114606279Y-110923326D01*
X113829605Y-111700000D01*
X114606279Y-112476674D01*
X114642888Y-112466646D01*
X114650998Y-112548985D01*
X114694454Y-112692246D01*
X114765026Y-112824276D01*
X114827324Y-112900185D01*
X114860000Y-112940001D01*
X114888998Y-112963799D01*
X115286355Y-113361156D01*
X115265000Y-113468514D01*
X115265000Y-113731486D01*
X115316304Y-113989405D01*
X115416939Y-114232359D01*
X115563038Y-114451013D01*
X115748987Y-114636962D01*
X115967641Y-114783061D01*
X116210595Y-114883696D01*
X116468514Y-114935000D01*
X116731486Y-114935000D01*
X116989405Y-114883696D01*
X117232359Y-114783061D01*
X117451013Y-114636962D01*
X117636962Y-114451013D01*
X117783061Y-114232359D01*
X117883696Y-113989405D01*
X117894850Y-113933329D01*
X120387284Y-113933329D01*
X120419953Y-114041044D01*
X120530208Y-114278392D01*
X120684649Y-114489670D01*
X120877340Y-114666759D01*
X121100877Y-114802853D01*
X121346670Y-114892722D01*
X121553000Y-114770201D01*
X121553000Y-113727000D01*
X121807000Y-113727000D01*
X121807000Y-114770201D01*
X122013330Y-114892722D01*
X122259123Y-114802853D01*
X122482660Y-114666759D01*
X122675351Y-114489670D01*
X122829792Y-114278392D01*
X122940047Y-114041044D01*
X122972716Y-113933329D01*
X122849374Y-113727000D01*
X121807000Y-113727000D01*
X121553000Y-113727000D01*
X120510626Y-113727000D01*
X120387284Y-113933329D01*
X117894850Y-113933329D01*
X117935000Y-113731486D01*
X117935000Y-113468514D01*
X117894851Y-113266671D01*
X120387284Y-113266671D01*
X120510626Y-113473000D01*
X121553000Y-113473000D01*
X121553000Y-112429799D01*
X121807000Y-112429799D01*
X121807000Y-113473000D01*
X122849374Y-113473000D01*
X122972716Y-113266671D01*
X122940047Y-113158956D01*
X122829792Y-112921608D01*
X122675351Y-112710330D01*
X122482660Y-112533241D01*
X122259123Y-112397147D01*
X122013330Y-112307278D01*
X121807000Y-112429799D01*
X121553000Y-112429799D01*
X121346670Y-112307278D01*
X121100877Y-112397147D01*
X120877340Y-112533241D01*
X120684649Y-112710330D01*
X120530208Y-112921608D01*
X120419953Y-113158956D01*
X120387284Y-113266671D01*
X117894851Y-113266671D01*
X117883696Y-113210595D01*
X117783061Y-112967641D01*
X117636962Y-112748987D01*
X117451013Y-112563038D01*
X117232359Y-112416939D01*
X116989405Y-112316304D01*
X116731486Y-112265000D01*
X116468514Y-112265000D01*
X116361156Y-112286355D01*
X116160000Y-112085199D01*
X116160000Y-109914801D01*
X116856871Y-109217930D01*
X117013940Y-109301885D01*
X117232600Y-109368215D01*
X117460000Y-109390612D01*
X117687399Y-109368215D01*
X117906059Y-109301885D01*
X118095000Y-109200894D01*
X118283940Y-109301885D01*
X118502600Y-109368215D01*
X118730000Y-109390612D01*
X118957399Y-109368215D01*
X119166098Y-109304907D01*
X119230820Y-109339502D01*
X119350518Y-109375812D01*
X119475000Y-109388072D01*
X120525000Y-109388072D01*
X120649482Y-109375812D01*
X120769180Y-109339502D01*
X120879494Y-109280537D01*
X120976185Y-109201185D01*
X121055537Y-109104494D01*
X121114502Y-108994180D01*
X121150812Y-108874482D01*
X121163072Y-108750000D01*
X121163072Y-107250000D01*
X121150812Y-107125518D01*
X121114502Y-107005820D01*
X121055537Y-106895506D01*
X120976185Y-106798815D01*
X120879494Y-106719463D01*
X120798585Y-106676216D01*
X121214802Y-106260000D01*
X124885199Y-106260000D01*
X125170000Y-106544802D01*
X125170000Y-106732292D01*
X125106060Y-106698115D01*
X124887400Y-106631785D01*
X124660000Y-106609388D01*
X124432601Y-106631785D01*
X124213941Y-106698115D01*
X124012422Y-106805829D01*
X123835789Y-106950788D01*
X123690830Y-107127421D01*
X123630655Y-107240000D01*
X123387322Y-107240000D01*
X123349999Y-107236324D01*
X123312676Y-107240000D01*
X123312667Y-107240000D01*
X123201014Y-107250997D01*
X123057753Y-107294454D01*
X122925724Y-107365026D01*
X122809999Y-107459999D01*
X122786201Y-107488997D01*
X121939002Y-108336197D01*
X121909999Y-108359999D01*
X121857250Y-108424275D01*
X121815026Y-108475724D01*
X121796169Y-108511003D01*
X121744454Y-108607754D01*
X121700997Y-108751015D01*
X121690000Y-108862668D01*
X121690000Y-108862678D01*
X121686324Y-108900000D01*
X121690000Y-108937323D01*
X121690001Y-110512668D01*
X121686324Y-110550000D01*
X121690001Y-110587333D01*
X121700998Y-110698986D01*
X121714180Y-110742442D01*
X121744454Y-110842246D01*
X121815026Y-110974276D01*
X121885378Y-111059999D01*
X121910000Y-111090001D01*
X121938998Y-111113799D01*
X122936200Y-112111002D01*
X122959999Y-112140001D01*
X123075724Y-112234974D01*
X123207753Y-112305546D01*
X123351014Y-112349003D01*
X123462667Y-112360000D01*
X123462676Y-112360000D01*
X123499999Y-112363676D01*
X123537322Y-112360000D01*
X123798030Y-112360000D01*
X123685241Y-112435363D01*
X123485363Y-112635241D01*
X123328320Y-112870273D01*
X123220147Y-113131426D01*
X123165000Y-113408665D01*
X123165000Y-113691335D01*
X123220147Y-113968574D01*
X123328320Y-114229727D01*
X123485363Y-114464759D01*
X123685241Y-114664637D01*
X123730392Y-114694806D01*
X123185199Y-115240000D01*
X108814802Y-115240000D01*
X108060000Y-114485199D01*
X108060000Y-112986750D01*
X108156820Y-113038502D01*
X108276518Y-113074812D01*
X108401000Y-113087072D01*
X108864250Y-113084000D01*
X109023000Y-112925250D01*
X109023000Y-111827000D01*
X109277000Y-111827000D01*
X109277000Y-112925250D01*
X109435750Y-113084000D01*
X109899000Y-113087072D01*
X110023482Y-113074812D01*
X110143180Y-113038502D01*
X110253494Y-112979537D01*
X110350185Y-112900185D01*
X110429537Y-112803494D01*
X110488502Y-112693180D01*
X110499695Y-112656279D01*
X112873326Y-112656279D01*
X112938729Y-112895045D01*
X113185538Y-113010845D01*
X113450195Y-113076270D01*
X113722531Y-113088805D01*
X113992081Y-113047970D01*
X114248484Y-112955332D01*
X114361271Y-112895045D01*
X114426674Y-112656279D01*
X113650000Y-111879605D01*
X112873326Y-112656279D01*
X110499695Y-112656279D01*
X110524812Y-112573482D01*
X110537072Y-112449000D01*
X110534000Y-111985750D01*
X110375250Y-111827000D01*
X109277000Y-111827000D01*
X109023000Y-111827000D01*
X109003000Y-111827000D01*
X109003000Y-111772531D01*
X112261195Y-111772531D01*
X112302030Y-112042081D01*
X112394668Y-112298484D01*
X112454955Y-112411271D01*
X112693721Y-112476674D01*
X113470395Y-111700000D01*
X112693721Y-110923326D01*
X112454955Y-110988729D01*
X112339155Y-111235538D01*
X112273730Y-111500195D01*
X112261195Y-111772531D01*
X109003000Y-111772531D01*
X109003000Y-111573000D01*
X109023000Y-111573000D01*
X109023000Y-110474750D01*
X109277000Y-110474750D01*
X109277000Y-111573000D01*
X110375250Y-111573000D01*
X110534000Y-111414250D01*
X110537072Y-110951000D01*
X110524812Y-110826518D01*
X110499696Y-110743721D01*
X112873326Y-110743721D01*
X113650000Y-111520395D01*
X114426674Y-110743721D01*
X114361271Y-110504955D01*
X114114462Y-110389155D01*
X113849805Y-110323730D01*
X113577469Y-110311195D01*
X113307919Y-110352030D01*
X113051516Y-110444668D01*
X112938729Y-110504955D01*
X112873326Y-110743721D01*
X110499696Y-110743721D01*
X110488502Y-110706820D01*
X110429537Y-110596506D01*
X110350185Y-110499815D01*
X110253494Y-110420463D01*
X110143180Y-110361498D01*
X110023482Y-110325188D01*
X109899000Y-110312928D01*
X109435750Y-110316000D01*
X109277000Y-110474750D01*
X109023000Y-110474750D01*
X108864250Y-110316000D01*
X108401000Y-110312928D01*
X108276518Y-110325188D01*
X108156820Y-110361498D01*
X108060000Y-110413250D01*
X108060000Y-106059834D01*
X108074977Y-106082249D01*
X108267751Y-106275023D01*
X108494430Y-106426485D01*
X108746302Y-106530814D01*
X109013688Y-106584000D01*
X109286312Y-106584000D01*
X109553698Y-106530814D01*
X109805570Y-106426485D01*
X110032249Y-106275023D01*
X110225023Y-106082249D01*
X110376485Y-105855570D01*
X110480814Y-105603698D01*
X110534000Y-105336312D01*
X110534000Y-105063688D01*
X110480814Y-104796302D01*
X110376485Y-104544430D01*
X110225023Y-104317751D01*
X110032249Y-104124977D01*
X109910000Y-104043293D01*
X109910000Y-103864801D01*
X110114802Y-103660000D01*
X112685199Y-103660000D01*
X112890000Y-103864802D01*
G37*
%TD.AperFunction*%
%TD*%
M02*
