M48
; DRILL file {KiCad (5.1.12)-1} date 08/19/23 11:40:16
; FORMAT={-:-/ absolute / inch / decimal}
; #@! TF.CreationDate,2023-08-19T11:40:16+05:30
; #@! TF.GenerationSoftware,Kicad,Pcbnew,(5.1.12)-1
; #@! TF.FileFunction,Plated,1,2,PTH
FMAT,2
INCH
T1C0.0236
T2C0.0276
T3C0.0295
T4C0.0315
T5C0.0390
T6C0.0394
T7C0.1339
%
G90
G05
T1
X4.9134Y-4.0551
X4.9921Y-4.0551
T2
X4.5815Y-4.061
X4.5906Y-4.4724
X4.7815Y-4.061
X4.7906Y-4.4724
T3
X4.6244Y-4.252
X4.6744Y-4.252
X4.7244Y-4.252
X4.9079Y-4.252
X4.9579Y-4.252
X5.0079Y-4.252
T4
X4.9055Y-4.4705
X5.0039Y-4.4705
T5
X4.2972Y-4.1417
X4.2972Y-4.3976
X4.4744Y-4.1417
X4.4744Y-4.3976
T6
X5.1496Y-4.0654
X5.1496Y-4.1654
X5.1535Y-4.3488
X5.1535Y-4.4488
T7
X4.1339Y-3.937
X4.1339Y-4.6063
X5.3543Y-3.937
X5.3543Y-4.6063
T0
M30
